<?xml version="1.0" encoding="utf-8"?>
<!-- Generator: Adobe Illustrator 27.5.0, SVG Export Plug-In . SVG Version: 6.00 Build 0)  -->
<svg version="1.1" xmlns="http://www.w3.org/2000/svg" xmlns:xlink="http://www.w3.org/1999/xlink" x="0px" y="0px"
	 viewBox="0 0 500 500" style="enable-background:new 0 0 500 500;" xml:space="preserve">
<g id="Background_Simple">
	<g>
		<path style="fill:#92E3A9;" d="M475.118,198.973c0,0,5.762-45.16-62.858-125.008S312.978,2.293,271.051,19.456
			c-41.927,17.163-70.276,92.943-107.207,105.199c-36.931,12.256-132.939,17.868-147.202,108.222
			C2.378,323.23,111.265,421.964,232.584,452.701s222.616-143.498,233.286-183.662C476.541,228.875,475.118,198.973,475.118,198.973
			z"/>
		<path style="opacity:0.7;fill:#FFFFFF;" d="M475.118,198.973c0,0,5.762-45.16-62.858-125.008S312.978,2.293,271.051,19.456
			c-41.927,17.163-70.276,92.943-107.207,105.199c-36.931,12.256-132.939,17.868-147.202,108.222
			C2.378,323.23,111.265,421.964,232.584,452.701s222.616-143.498,233.286-183.662C476.541,228.875,475.118,198.973,475.118,198.973
			z"/>
	</g>
</g>
<g id="Floor">
	<ellipse style="fill:#263238;" cx="251.074" cy="467.185" rx="218.204" ry="18.231"/>
</g>
<g id="Cables">
	<g>
		<path style="fill:none;stroke:#263238;stroke-width:4;stroke-linecap:round;stroke-linejoin:round;stroke-miterlimit:10;" d="
			M265.121,83.152c0,0,95.613-0.184,126.872-79.297"/>
		<path style="fill:none;stroke:#263238;stroke-width:4;stroke-linecap:round;stroke-linejoin:round;stroke-miterlimit:10;" d="
			M266.567,92.62c0,0,6.555-1.057,10.343,1.009c16.082,8.772,56.729,31.16,86.558-1.602c9.512-10.448,15.11-23.864,16.49-37.925
			c1.552-15.827,3.711-41.702,1.936-47.913"/>
		<path style="fill:none;stroke:#263238;stroke-width:4;stroke-linecap:round;stroke-linejoin:round;stroke-miterlimit:10;" d="
			M264.735,103.992c0,0,95.697,16.668,93.095-99.753"/>
	</g>
</g>
<g id="Character">
	<g>
		<g>
			
				<rect x="258.784" y="80.949" transform="matrix(0.9907 -0.136 0.136 0.9907 -8.9747 36.3009)" style="fill:#263238;stroke:#263238;stroke-linecap:round;stroke-linejoin:round;stroke-miterlimit:10;" width="4.872" height="5.785"/>
			
				<rect x="263.599" y="81.63" transform="matrix(0.9907 -0.136 0.136 0.9907 -8.8454 36.8286)" style="fill:#263238;stroke:#263238;stroke-linecap:round;stroke-linejoin:round;stroke-miterlimit:10;" width="3.045" height="3.045"/>
		</g>
		<g>
			
				<rect x="258.784" y="90.693" transform="matrix(0.9907 -0.136 0.136 0.9907 -10.2997 36.3914)" style="fill:#263238;stroke:#263238;stroke-linecap:round;stroke-linejoin:round;stroke-miterlimit:10;" width="4.872" height="5.785"/>
			
				<rect x="263.599" y="91.374" transform="matrix(0.9907 -0.136 0.136 0.9907 -10.1687 36.9102)" style="fill:#263238;stroke:#263238;stroke-linecap:round;stroke-linejoin:round;stroke-miterlimit:10;" width="3.045" height="3.045"/>
		</g>
		<g>
			
				<rect x="256.501" y="102.415" transform="matrix(0.9907 -0.136 0.136 0.9907 -11.9152 36.1905)" style="fill:#263238;stroke:#263238;stroke-linecap:round;stroke-linejoin:round;stroke-miterlimit:10;" width="4.872" height="5.785"/>
			
				<rect x="261.315" y="103.096" transform="matrix(0.9907 -0.136 0.136 0.9907 -11.7838 36.7085)" style="fill:#263238;stroke:#263238;stroke-linecap:round;stroke-linejoin:round;stroke-miterlimit:10;" width="3.045" height="3.045"/>
		</g>
		<g>
			<g>
				<path style="fill:#BABABA;stroke:#263238;stroke-linecap:round;stroke-linejoin:round;stroke-miterlimit:10;" d="
					M176.403,129.046c0,0-9.193,2.577-9.628,2.722c-0.436,0.145-0.871,1.452-0.145,2.614c0.726,1.162,2.178,6.825,2.178,6.825
					s2.904,2.033,4.792,2.468c1.888,0.436,6.244,0.871,7.115-1.597c0.871-2.469,0.726-9.003-0.871-10.745
					C178.247,129.59,177.609,128.211,176.403,129.046z"/>
				<path style="fill:#FFFFFF;stroke:#263238;stroke-linecap:round;stroke-linejoin:round;stroke-miterlimit:10;" d="
					M167.937,131.913c0,0,3.195,1.452,4.792,2.904s1.888,1.743,2.033,2.469c0.145,0.726,0.726,4.356,0.581,6.099"/>
				<path style="fill:#FFFFFF;stroke:#263238;stroke-linecap:round;stroke-linejoin:round;stroke-miterlimit:10;" d="
					M174.762,137.286c0,0,5.082-2.469,5.082-5.954"/>
			</g>
			<path style="fill:#E5E5E5;stroke:#263238;stroke-linecap:round;stroke-linejoin:round;stroke-miterlimit:10;" d="M218.76,188.254
				c0,0-5.663-4.937-12.198-11.617c-6.534-6.68-13.214-16.554-14.521-20.62c-1.307-4.066-4.647-16.699-6.244-21.055
				c-1.597-4.356-1.888-7.406-3.195-9.003c-1.307-1.597-7.551-3.921-8.132-4.211c-0.581-0.29-3.63-1.307-6.389-2.468
				c-2.759-1.162-6.534,0-3.049,3.63c3.485,3.63,8.713,3.921,8.713,3.921l4.356,3.63c0,0,1.597,7.551,1.307,9.439
				c-0.29,1.888-1.162,2.759-1.162,2.759s-2.178,0.581-4.501-0.726c-2.323-1.307-3.921-3.195-8.422-2.033s-3.195,4.647-0.436,5.082
				c2.759,0.436,7.406,1.597,9.439,4.066c2.033,2.469,0.581,5.228,4.792,8.132c4.211,2.904,5.228,3.63,5.228,3.63
				s2.904,9.003,4.066,19.168c1.162,10.165,2.614,21.055,12.488,29.913c9.874,8.858,14.376,11.762,16.264,11.472
				c1.888-0.29,3.34-1.016,3.34-4.647C220.503,213.085,218.76,188.254,218.76,188.254z"/>
			<path style="fill:none;stroke:#263238;stroke-linecap:round;stroke-linejoin:round;stroke-miterlimit:10;" d="M191.042,168.471
				c0,0,6.987,24.151,16.708,36.302c6.32,7.9,10.784,9.569,10.784,9.569"/>
			<path style="fill:#263238;stroke:#263238;stroke-linecap:round;stroke-linejoin:round;stroke-miterlimit:10;" d="M184.904,162.68
				c0.407,1.422,0.986,3.577,1.582,6.202c4.713-0.813,7.82-3.225,9.679-5.276c-1.495-2.265-2.701-4.337-3.46-5.961
				C189.362,161.066,186.629,162.273,184.904,162.68z"/>
			<g>
				<path style="fill:#263238;stroke:#263238;stroke-linecap:round;stroke-linejoin:round;stroke-miterlimit:10;" d="
					M172.419,126.651c0.384-2.355,2-3.805,3.014-4.499c-0.49-0.201-0.844-0.345-0.961-0.403c-0.277-0.138-1.117-0.443-2.216-0.848
					c-1.147,1.113-2.305,2.726-2.741,4.919C170.627,126.255,171.656,126.509,172.419,126.651z"/>
				<path style="fill:#263238;stroke:#263238;stroke-linecap:round;stroke-linejoin:round;stroke-miterlimit:10;" d="
					M174.256,142.174c0.402,0.95,0.819,3.051-1.676,5.387c0.681,0.433,1.284,0.925,1.747,1.487c0.161,0.195,0.294,0.394,0.416,0.593
					c2.495-2.394,3.027-4.894,2.757-6.874C176.761,142.824,175.559,142.766,174.256,142.174z"/>
				<path style="fill:#263238;stroke:#263238;stroke-linecap:round;stroke-linejoin:round;stroke-miterlimit:10;" d="
					M182.603,125.96c-0.349-0.427-1.055-0.905-1.907-1.383c-2.099,1.075-3.481,2.841-4.293,4.469l1.698,1.415
					c0,0,0.111,0.525,0.267,1.324l0.175,0.041c0.047-0.191,1.04-3.941,4.61-4.98C182.988,126.519,182.811,126.214,182.603,125.96z"
					/>
			</g>
		</g>
		<g>
			<g>
				<g>
					
						<circle style="fill:#FFFFFF;stroke:#263238;stroke-linecap:round;stroke-linejoin:round;stroke-miterlimit:10;" cx="236.337" cy="446.745" r="8.826"/>
					<path style="fill:#FFFFFF;stroke:#263238;stroke-linecap:round;stroke-linejoin:round;stroke-miterlimit:10;" d="
						M223.815,433.403c0,0-8.005,11.905-12.726,15.6c-4.721,3.695-14.574,8.621-18.269,9.853c-3.695,1.232-3.695,3.49-3.695,4.721
						c0,1.232,0.205,3.49,1.847,3.695c1.642,0.205,56.448,0,56.448,0s4.31-1.232,4.31-4.516c0-3.284-0.821-4.721-0.821-4.721
						l-0.205-19.09L223.815,433.403z"/>
					
						<line style="fill:none;stroke:#263238;stroke-linecap:round;stroke-linejoin:round;stroke-miterlimit:10;" x1="250.089" y1="448.592" x2="245.163" y2="448.592"/>
					
						<line style="fill:#FFFFFF;stroke:#263238;stroke-linecap:round;stroke-linejoin:round;stroke-miterlimit:10;" x1="236.337" y1="455.571" x2="236.337" y2="460.703"/>
					<path style="fill:#92E3A9;stroke:#263238;stroke-linecap:round;stroke-linejoin:round;stroke-miterlimit:10;" d="
						M213.984,467.358c1.676-0.002,3.375-0.005,5.077-0.008c-1.511-8.266-5.124-15.169-7.369-18.841
						c-0.201,0.167-0.401,0.336-0.603,0.494c-0.977,0.765-2.181,1.583-3.498,2.409C209.541,454.665,212.568,460.498,213.984,467.358
						z"/>
					<path style="fill:#FFFFFF;stroke:#263238;stroke-linecap:round;stroke-linejoin:round;stroke-miterlimit:10;" d="
						M251.731,462.756c0-0.791-0.049-1.47-0.122-2.053c-15.469,0-47.814,0-61.686,0c-0.792,1.032-0.798,2.137-0.798,2.874
						c0,1.232,0.205,3.49,1.847,3.695c1.642,0.205,56.448,0,56.448,0S251.731,466.04,251.731,462.756z"/>
				</g>
				<g>
					<path style="fill:#FFFFFF;stroke:#263238;stroke-linecap:round;stroke-linejoin:round;stroke-miterlimit:10;" d="
						M247.359,438.947c0,0-4.454,6.361-9.175,10.056c-4.721,3.695-14.574,8.621-18.269,9.853c-3.695,1.232-3.695,3.49-3.695,4.721
						c0,1.232,0.205,3.49,1.847,3.695c1.642,0.205,56.448,0,56.448,0s4.311-1.232,4.311-4.516c0-3.284-0.821-4.721-0.821-4.721
						l-1.642-15.6L247.359,438.947z"/>
					
						<circle style="fill:#92E3A9;stroke:#263238;stroke-linecap:round;stroke-linejoin:round;stroke-miterlimit:10;" cx="263.432" cy="446.745" r="8.826"/>
					
						<line style="fill:none;stroke:#263238;stroke-linecap:round;stroke-linejoin:round;stroke-miterlimit:10;" x1="277.184" y1="448.592" x2="272.258" y2="448.592"/>
					
						<line style="fill:#FFFFFF;stroke:#263238;stroke-linecap:round;stroke-linejoin:round;stroke-miterlimit:10;" x1="263.432" y1="455.571" x2="263.432" y2="460.703"/>
					<path style="fill:#92E3A9;stroke:#263238;stroke-linecap:round;stroke-linejoin:round;stroke-miterlimit:10;" d="
						M241.079,467.358c1.676-0.002,3.375-0.005,5.077-0.008c-1.511-8.266-5.124-15.169-7.369-18.841
						c-0.201,0.167-0.401,0.336-0.603,0.494c-0.977,0.765-2.181,1.583-3.498,2.409C236.636,454.665,239.663,460.498,241.079,467.358
						z"/>
					<path style="fill:#FFFFFF;stroke:#263238;stroke-linecap:round;stroke-linejoin:round;stroke-miterlimit:10;" d="
						M278.827,462.756c0-0.791-0.049-1.47-0.122-2.053c-15.469,0-47.814,0-61.686,0c-0.792,1.032-0.798,2.137-0.798,2.874
						c0,1.232,0.205,3.49,1.847,3.695c1.642,0.205,56.448,0,56.448,0S278.827,466.04,278.827,462.756z"/>
				</g>
				<path style="fill:#263238;stroke:#263238;stroke-linecap:round;stroke-linejoin:round;stroke-miterlimit:10;" d="
					M218.721,234.14v9.112c0,0-0.868,16.055-1.519,23.865c-0.651,7.81,0.868,17.573,0.868,17.573s-3.688,47.947,0.217,63.785
					c3.905,15.838,5.858,62.05,5.858,62.05l0.868,9.98c0,0,0,3.905-1.085,3.905c-1.085,0-1.736,0.217-1.953,3.037
					c-0.217,2.82,0.651,6.509,1.736,7.16c1.085,0.651,21.262,6.509,21.262,6.509s-0.434-1.953,2.387-2.17
					c2.82-0.217,29.072,5.641,29.072,5.641s1.953-2.17,2.17-4.99c0.217-2.82-3.471-8.461-3.471-8.461l-0.434-18.658
					c0,0,0.868-29.072-2.169-43.608c-3.037-14.536-3.254-30.374-2.603-46.429c0.651-16.055,3.905-35.798,5.424-39.052
					c1.519-3.254,4.122-19.309,3.254-29.506c-0.868-10.197-1.736-14.536-1.736-14.536s-0.02-0.905-0.01-2.08
					C276.865,236.092,218.721,234.14,218.721,234.14z"/>
				<g>
					<g>
						<path style="fill:#A1A1A1;stroke:#263238;stroke-linecap:round;stroke-linejoin:round;stroke-miterlimit:10;" d="
							M236.728,234.804c-10.036-0.397-18.007-0.664-18.007-0.664v8.69l18.007,0.167V234.804z"/>
					</g>
				</g>
				<path style="fill:#A1A1A1;stroke:#263238;stroke-linecap:round;stroke-linejoin:round;stroke-miterlimit:10;" d="
					M261.461,243.227l16.025,0.149c-0.368-2.756-0.621-4.029-0.621-4.029s-0.02-0.905-0.01-2.08
					c0.003-0.396-6.621-0.881-15.394-1.35V243.227z"/>
				<path style="fill:#A1A1A1;stroke:#263238;stroke-linecap:round;stroke-linejoin:round;stroke-miterlimit:10;" d="
					M240.85,243.036l17.79,0.165v-7.431c-5.64-0.285-11.915-0.56-17.79-0.8V243.036z"/>
				
					<rect x="220.89" y="236.743" style="fill:#FFFFFF;stroke:#263238;stroke-linecap:round;stroke-linejoin:round;stroke-miterlimit:10;" width="9.112" height="5.641"/>
				<polyline style="fill:none;stroke:#A6A6A6;stroke-linecap:round;stroke-linejoin:round;stroke-miterlimit:10;" points="
					247.697,420.682 248.877,427.665 242.586,428.099 246.057,435.693 				"/>
				<path style="fill:none;stroke:#A6A6A6;stroke-linecap:round;stroke-linejoin:round;stroke-miterlimit:10;" d="M229.652,314.453
					c0.999,17.477,2.453,39.789,3.605,44.654c1.953,8.244,13.017,53.154,13.017,53.154"/>
			</g>
			<path style="fill:none;stroke:#A6A6A6;stroke-linecap:round;stroke-linejoin:round;stroke-miterlimit:10;" d="M224.795,279.918
				l3.688,12.584c0,0,0.33,6.823,0.842,16.134"/>
		</g>
		<path style="fill:#FFFFFF;stroke:#263238;stroke-linecap:round;stroke-linejoin:round;stroke-miterlimit:10;" d="M230.472,141.751
			c0,0-14.74,22.602-14.544,29.873c0.197,7.272,0.197,18.278,0.197,18.278s0.786,34.787,0.197,37.342
			c-0.59,2.555-1.572,7.075-0.786,7.468c0.786,0.393,13.561,1.179,16.313,1.572c2.751,0.393,41.273,1.572,45.007,0.983
			c3.734-0.59,4.324-5.7,4.324-7.075c0-1.376,6.486-65.84,6.486-82.349c0-16.509-2.752-19.26-7.075-22.209
			c-4.324-2.948-14.544-7.075-14.544-7.075L230.472,141.751z"/>
		<path style="fill:#FFFFFF;stroke:#263238;stroke-linecap:round;stroke-linejoin:round;stroke-miterlimit:10;" d="M268.276,142.078
			c0,0-10.31,10.745-10.746,22.653c-0.436,11.907,2.759,40.223,2.759,40.223s14.521-4.356,20.039-3.34
			c5.518,1.016,11.036,3.921,11.036,3.921s2.614-12.052,0.726-31.946c-1.888-19.894-1.017-32.527-2.614-36.883
			c-1.597-4.356-5.082-10.891-11.326-10.019"/>
		<polygon style="fill:#FFFFFF;stroke:#263238;stroke-linecap:round;stroke-linejoin:round;stroke-miterlimit:10;" points="
			235.314,132.696 228.9,137.034 236.369,142.34 237.597,139.503 		"/>
		<polygon style="fill:#FFFFFF;stroke:#263238;stroke-linecap:round;stroke-linejoin:round;stroke-miterlimit:10;" points="
			228.9,137.034 226.542,148.236 234.207,141.161 		"/>
		<path style="fill:#92E3A9;stroke:#263238;stroke-linecap:round;stroke-linejoin:round;stroke-miterlimit:10;" d="M240.299,138.606
			c0,0-5.896,1.572-7.665,3.734s-3.341,4.717-3.145,7.468c0.197,2.751,0.197,3.931,0.393,5.307
			c0.197,1.376-8.058,22.798-8.844,37.145c-0.786,14.347-2.948,33.018-2.948,33.018l3.145,7.861l8.648-12.185
			c0,0-3.931-26.139-0.786-44.417c3.145-18.278,4.717-21.422,4.717-21.422s2.751-1.769,4.52-5.307
			c1.769-3.538,4.913-7.468,4.913-7.468L240.299,138.606z"/>
		<g>
			<path style="fill:#263238;stroke:#263238;stroke-linecap:round;stroke-linejoin:round;stroke-miterlimit:10;" d="M212.361,79.691
				c0,0-2.74,0.152-4.567-3.958c-1.827-4.111-0.305-5.481,0.761-4.72c1.066,0.761,1.827,1.37,1.827,1.37s-1.979-5.785,2.436-8.982
				c4.415-3.197,3.958,1.218,3.958,1.218s-0.457-1.37,5.633-4.72s9.135-3.806,16.138-2.588c7.003,1.218,8.373,3.958,8.373,3.958
				s-7.003-1.675-10.657,3.197c-3.654,4.872-4.72,8.373-6.547,10.962c-1.827,2.588-4.567,5.176-8.678,6.394
				C216.929,83.041,212.361,79.691,212.361,79.691z"/>
			<path style="fill:#FFFFFF;stroke:#263238;stroke-linecap:round;stroke-linejoin:round;stroke-miterlimit:10;" d="M212.361,79.691
				c0,0,0.913,18.574,2.74,23.141c1.827,4.567,5.481,8.526,5.481,8.526s2.893,10.353,5.329,11.723s6.394,0.152,6.394,0.152
				s4.872,16.29,5.785,16.442c0.913,0.152,23.902-23.293,23.902-23.293s-3.654-9.744-3.654-10.2c0-0.457,2.436-17.051,1.675-23.598
				c-0.761-6.547-3.349-16.29-8.982-20.248c-5.633-3.958-12.18-2.74-17.356,0.761c-5.176,3.502-7.917,14.463-7.917,14.463
				l-5.785,3.654L212.361,79.691z"/>
			<path style="fill:#E5E5E5;stroke:#263238;stroke-linecap:round;stroke-linejoin:round;stroke-miterlimit:10;" d="M260.014,82.584
				c-0.761-6.547-3.349-16.29-8.982-20.248c-5.633-3.958-12.18-2.74-17.356,0.761c-5.176,3.502-7.917,14.463-7.917,14.463
				s2.132-3.502,11.723-4.111c0,0,2.436,19.487,2.74,23.75c0.304,4.263-3.958,6.699-3.958,8.83c0,2.132,2.131,10.2,2.284,11.571
				c0.152,1.37-6.242,5.633-6.242,5.633s4.378,16.118,5.292,16.27c0.913,0.152,24.396-23.121,24.396-23.121s-3.654-9.744-3.654-10.2
				C258.339,105.725,260.775,89.131,260.014,82.584z"/>
			<path style="fill:#BABABA;stroke:#263238;stroke-linecap:round;stroke-linejoin:round;stroke-miterlimit:10;" d="M251.031,62.336
				c-5.633-3.958-12.18-2.74-17.356,0.761c-5.176,3.502-7.917,14.463-7.917,14.463s8.069-6.699,20.401-2.893
				c9.135,2.82,12.42,4.719,13.51,5.515C258.607,73.847,256.009,65.834,251.031,62.336z"/>
			<path style="fill:none;stroke:#263238;stroke-linecap:round;stroke-linejoin:round;stroke-miterlimit:10;" d="M232.305,123.233
				c0,0,15.833-10.657,16.442-13.854c0.609-3.197,0.913-11.57,0.913-11.57"/>
			
				<line style="fill:none;stroke:#263238;stroke-linecap:round;stroke-linejoin:round;stroke-miterlimit:10;" x1="261.388" y1="113.646" x2="235.803" y2="134.27"/>
			
				<line style="fill:none;stroke:#263238;stroke-linecap:round;stroke-linejoin:round;stroke-miterlimit:10;" x1="233.882" y1="128.967" x2="259.146" y2="108.369"/>
			<polygon style="fill:none;stroke:#263238;stroke-linecap:round;stroke-linejoin:round;stroke-miterlimit:10;" points="
				249.204,108.161 258.339,106.182 258.643,104.051 249.509,104.051 			"/>
			<g>
				<path style="fill:#263238;stroke:#263238;stroke-linecap:round;stroke-linejoin:round;stroke-miterlimit:10;" d="M256.36,90.272
					c0,4.162-2.795,7.536-6.242,7.536c-3.447,0-6.242-3.374-6.242-7.536c0-4.162,2.795-7.536,6.242-7.536
					C253.565,82.736,256.36,86.11,256.36,90.272z"/>
				<path style="fill:#92E3A9;stroke:#263238;stroke-linecap:round;stroke-linejoin:round;stroke-miterlimit:10;" d="
					M252.649,90.272c0,2.287-1.474,4.141-3.292,4.141c-1.818,0-3.292-1.854-3.292-4.141c0-2.287,1.474-4.141,3.292-4.141
					C251.175,86.132,252.649,87.985,252.649,90.272z"/>
				<path style="fill:none;stroke:#92E3A9;stroke-linecap:round;stroke-linejoin:round;stroke-miterlimit:10;" d="M251.12,85.164
					c1.917,0.547,3.345,2.626,3.345,5.108c0,2.604-1.571,4.765-3.631,5.177"/>
			</g>
			<path style="fill:none;stroke:#263238;stroke-linecap:round;stroke-linejoin:round;stroke-miterlimit:10;" d="M227.129,104.812
				l-5.329,1.675l-0.609-13.55l-2.131-3.349c0,0-3.654,0-4.72,1.675"/>
			<path style="fill:none;stroke:#263238;stroke-linecap:round;stroke-linejoin:round;stroke-miterlimit:10;" d="M224.084,112.119
				c0,0,4.263-0.304,6.394-2.588"/>
			<path style="fill:#263238;" d="M233.196,92.848c0.235,1.239-0.144,2.352-0.846,2.485c-0.702,0.133-1.462-0.763-1.697-2.002
				c-0.235-1.239,0.144-2.352,0.846-2.485C232.201,90.712,232.961,91.609,233.196,92.848z"/>
			<path style="fill:#263238;" d="M220.027,96.045c0.235,1.239-0.144,2.352-0.846,2.485c-0.702,0.133-1.462-0.763-1.697-2.003
				c-0.235-1.239,0.144-2.352,0.846-2.485C219.032,93.909,219.792,94.806,220.027,96.045z"/>
			<path style="fill:none;stroke:#263238;stroke-linecap:round;stroke-linejoin:round;stroke-miterlimit:10;" d="M225.302,88.674
				c0,0,6.242-3.045,11.114-1.675"/>
		</g>
		<polygon style="fill:#FFFFFF;stroke:#263238;stroke-linecap:round;stroke-linejoin:round;stroke-miterlimit:10;" points="
			265.063,109.519 240.299,137.23 245.999,145.878 269.583,116.79 		"/>
		<path style="fill:#E5E5E5;stroke:#263238;stroke-linecap:round;stroke-linejoin:round;stroke-miterlimit:10;" d="M261.306,206.115
			c0,0-2.178,7.26,0,13.505s10.455,9.148,19.313,6.099c8.858-3.049,9.148-9.439,9.439-13.359c0.29-3.921,1.314-3.032,0.875-4.711
			C290.493,205.97,273.94,198.129,261.306,206.115z"/>
		<g>
			<path style="fill:#E5E5E5;stroke:#263238;stroke-linecap:round;stroke-linejoin:round;stroke-miterlimit:10;" d="
				M273.541,189.128c0,0-4.233,9.612-4.85,10.23c-0.617,0.617-4.674,0.882-5.467,1.499c-0.794,0.617-1.587,1.146-2.822,1.411
				c-1.235,0.265-3.88,1.323-7.408,0.353c-3.527-0.97-2.028,5.379,3.527,6.261c5.556,0.882,5.997-0.088,9.701-1.058
				c3.704-0.97,6.438,0.882,8.289,1.499c1.852,0.617,4.233-0.353,6.173-0.441c1.94-0.088,3.704,0.264,6.261,1.146
				c2.557,0.882,3.792,0.97,4.938-0.265c1.146-1.235,1.94-2.822,1.587-5.291c-0.353-2.469-4.321-5.909-8.201-8.201
				c-3.88-2.293-9.524-5.115-9.524-5.115L273.541,189.128z"/>
			<path style="fill:#263238;stroke:#263238;stroke-linecap:round;stroke-linejoin:round;stroke-miterlimit:10;" d="
				M263.224,200.857c0,0,2.91,2.822,2.205,6.967l1.852-0.264c0,0,0.794-5.909-1.764-7.231
				C265.516,200.328,263.841,200.152,263.224,200.857z"/>
			<path style="fill:#263238;stroke:#263238;stroke-linecap:round;stroke-linejoin:round;stroke-miterlimit:10;" d="
				M293.471,204.473c-0.353-2.469-4.321-5.909-8.201-8.201c-3.88-2.293-9.524-5.115-9.524-5.115l-2.205-2.028
				c0,0-2.391,5.429-3.841,8.389c0.744,1.234,2.552,3.676,5.428,4.134c3.88,0.617,4.762-1.235,7.231,1.146
				c2.469,2.381,6.702,5.467,9.877,5.732c0.183,0.015,0.367,0.019,0.551,0.016C293.395,207.499,293.719,206.206,293.471,204.473z"/>
			<g>
				<path style="fill:#E5E5E5;stroke:#263238;stroke-linecap:round;stroke-linejoin:round;stroke-miterlimit:10;" d="
					M279.344,189.254c-0.106-1.355-1.048-2.56-2.381-2.83c-0.84-0.17-1.799,0.019-2.663,1.12c-2.162,2.751-1.376,6.879-0.983,8.648
					c0.393,1.769,1.376,4.717,3.538,4.127s2.751-1.572,2.751-5.11C279.607,193.039,279.459,190.722,279.344,189.254z"/>
				<path style="fill:#E5E5E5;stroke:#263238;stroke-linecap:round;stroke-linejoin:round;stroke-miterlimit:10;" d="
					M286.752,192.252c-0.106-1.355-1.049-2.56-2.381-2.83c-0.84-0.17-1.799,0.019-2.663,1.119c-2.162,2.752-1.376,6.879-0.983,8.648
					c0.393,1.769,1.376,4.717,3.538,4.127s2.751-1.572,2.751-5.11C287.014,196.037,286.866,193.72,286.752,192.252z"/>
				<path style="fill:#E5E5E5;stroke:#263238;stroke-linecap:round;stroke-linejoin:round;stroke-miterlimit:10;" d="
					M293.648,199.27c0,0,2.91-0.441,2.998,2.117c0.088,2.557,0.706,8.73-1.235,9.083c-1.94,0.353-2.381-0.617-2.381-1.94
					s-0.176-2.646-0.176-2.646l-0.088-6.438L293.648,199.27z"/>
				<path style="fill:#E5E5E5;stroke:#263238;stroke-linecap:round;stroke-linejoin:round;stroke-miterlimit:10;" d="
					M293.073,198.134c-0.091-1.165-0.902-2.202-2.047-2.433c-0.722-0.146-1.547,0.016-2.29,0.963
					c-1.859,2.366-1.183,5.915-0.845,7.436c0.338,1.521,1.183,4.056,3.042,3.549c1.859-0.507,2.366-1.352,2.366-4.394
					C293.299,201.389,293.171,199.396,293.073,198.134z"/>
			</g>
		</g>
	</g>
</g>
<g id="Graphics_5">
	<g>
		<path style="fill:none;stroke:#263238;stroke-linecap:round;stroke-linejoin:round;stroke-miterlimit:10;" d="M397.894,437.918
			h-82.404c-1.285,0-2.326-1.042-2.326-2.326V374.63c0-1.285,1.042-2.326,2.326-2.326h82.404c1.285,0,2.326,1.041,2.326,2.326
			v60.961C400.22,436.876,399.179,437.918,397.894,437.918z"/>
		<g>
			
				<line style="fill:none;stroke:#263238;stroke-width:0.5;stroke-miterlimit:10;" x1="317.203" y1="431.775" x2="398.938" y2="431.775"/>
			<g>
				<g>
					
						<line style="fill:none;stroke:#263238;stroke-width:0.5;stroke-miterlimit:10;" x1="317.203" y1="431.775" x2="317.203" y2="432.984"/>
					
						<line style="fill:none;stroke:#263238;stroke-width:0.5;stroke-miterlimit:10;" x1="322.652" y1="431.775" x2="322.652" y2="432.984"/>
					
						<line style="fill:none;stroke:#263238;stroke-width:0.5;stroke-miterlimit:10;" x1="328.101" y1="431.775" x2="328.101" y2="432.984"/>
					
						<line style="fill:none;stroke:#263238;stroke-width:0.5;stroke-miterlimit:10;" x1="333.55" y1="431.775" x2="333.55" y2="432.984"/>
					
						<line style="fill:none;stroke:#263238;stroke-width:0.5;stroke-miterlimit:10;" x1="338.999" y1="431.775" x2="338.999" y2="432.984"/>
					
						<line style="fill:none;stroke:#263238;stroke-width:0.5;stroke-miterlimit:10;" x1="344.448" y1="431.775" x2="344.448" y2="432.984"/>
					
						<line style="fill:none;stroke:#263238;stroke-width:0.5;stroke-miterlimit:10;" x1="349.897" y1="431.775" x2="349.897" y2="432.984"/>
					
						<line style="fill:none;stroke:#263238;stroke-width:0.5;stroke-miterlimit:10;" x1="355.346" y1="431.775" x2="355.346" y2="432.984"/>
					
						<line style="fill:none;stroke:#263238;stroke-width:0.5;stroke-miterlimit:10;" x1="360.795" y1="431.775" x2="360.795" y2="432.984"/>
					
						<line style="fill:none;stroke:#263238;stroke-width:0.5;stroke-miterlimit:10;" x1="366.244" y1="431.775" x2="366.244" y2="432.984"/>
					
						<line style="fill:none;stroke:#263238;stroke-width:0.5;stroke-miterlimit:10;" x1="371.693" y1="431.775" x2="371.693" y2="432.984"/>
					
						<line style="fill:none;stroke:#263238;stroke-width:0.5;stroke-miterlimit:10;" x1="377.142" y1="431.775" x2="377.142" y2="432.984"/>
					
						<line style="fill:none;stroke:#263238;stroke-width:0.5;stroke-miterlimit:10;" x1="382.591" y1="431.775" x2="382.591" y2="432.984"/>
					
						<line style="fill:none;stroke:#263238;stroke-width:0.5;stroke-miterlimit:10;" x1="388.04" y1="431.775" x2="388.04" y2="432.984"/>
					
						<line style="fill:none;stroke:#263238;stroke-width:0.5;stroke-miterlimit:10;" x1="393.489" y1="431.775" x2="393.489" y2="432.984"/>
					
						<line style="fill:none;stroke:#263238;stroke-width:0.5;stroke-miterlimit:10;" x1="398.938" y1="431.775" x2="398.938" y2="432.984"/>
				</g>
			</g>
		</g>
		<g>
			<g>
				<path style="fill:#FFFFFF;stroke:#263238;stroke-miterlimit:10;" d="M319.927,430.793h76.286v-10.545l-5.393-10.437
					c-0.037-0.071-0.062-0.15-0.075-0.231l-4.797-30.947c-0.118-0.762-1.063-0.746-1.162,0.02l-4.881,37.781
					c-0.025,0.191-0.118,0.361-0.256,0.468l-4.704,3.641c-0.285,0.221-0.671,0.113-0.839-0.234l-4.736-9.775
					c-0.198-0.408-0.681-0.47-0.951-0.122l-4.901,6.323l-5.449,7.03l-5.449-7.03l-4.801-6.194c-0.296-0.381-0.833-0.263-0.989,0.218
					l-5.109,15.818l-5.449-28.193l-5.449,31.005l-5.449-4.218l-4.315-12.248c-0.245-0.695-1.134-0.491-1.134,0.26V430.793z"/>
			</g>
		</g>
		<g>
			<g>
				<path style="fill:#263238;" d="M396.214,430.81h-76.286v-9.068l5.393-8.976c0.037-0.061,0.062-0.129,0.075-0.199l4.797-26.614
					c0.118-0.655,1.063-0.642,1.162,0.017l4.881,32.49c0.025,0.164,0.118,0.311,0.256,0.403l4.704,3.131
					c0.285,0.19,0.671,0.097,0.839-0.201l4.736-8.407c0.198-0.351,0.681-0.404,0.951-0.105l4.901,5.437l5.449,6.046l5.449-6.046
					l4.801-5.326c0.296-0.328,0.833-0.226,0.989,0.187l5.109,13.603h5.449l5.449,2.418l5.449-3.627l4.315-10.533
					c0.245-0.597,1.134-0.422,1.134,0.223V430.81z"/>
			</g>
		</g>
		<g>
			<g>
				
					<line style="fill:none;stroke:#263238;stroke-linecap:round;stroke-linejoin:round;stroke-miterlimit:10;" x1="361.239" y1="381.055" x2="378.121" y2="381.055"/>
				
					<line style="fill:none;stroke:#263238;stroke-linecap:round;stroke-linejoin:round;stroke-miterlimit:10;" x1="361.239" y1="385.008" x2="378.121" y2="385.008"/>
				
					<line style="fill:none;stroke:#263238;stroke-linecap:round;stroke-linejoin:round;stroke-miterlimit:10;" x1="361.239" y1="388.961" x2="378.121" y2="388.961"/>
				
					<line style="fill:none;stroke:#263238;stroke-linecap:round;stroke-linejoin:round;stroke-miterlimit:10;" x1="361.239" y1="392.914" x2="378.121" y2="392.914"/>
				
					<line style="fill:none;stroke:#263238;stroke-linecap:round;stroke-linejoin:round;stroke-miterlimit:10;" x1="361.239" y1="396.867" x2="378.121" y2="396.867"/>
				
					<line style="fill:none;stroke:#263238;stroke-linecap:round;stroke-linejoin:round;stroke-miterlimit:10;" x1="361.239" y1="400.82" x2="378.121" y2="400.82"/>
			</g>
			<g>
				
					<line style="fill:none;stroke:#263238;stroke-linecap:round;stroke-linejoin:round;stroke-miterlimit:10;" x1="357.402" y1="381.055" x2="359.512" y2="381.055"/>
				
					<line style="fill:none;stroke:#263238;stroke-linecap:round;stroke-linejoin:round;stroke-miterlimit:10;" x1="357.402" y1="385.008" x2="359.512" y2="385.008"/>
				
					<line style="fill:none;stroke:#263238;stroke-linecap:round;stroke-linejoin:round;stroke-miterlimit:10;" x1="357.402" y1="388.961" x2="359.512" y2="388.961"/>
				
					<line style="fill:none;stroke:#263238;stroke-linecap:round;stroke-linejoin:round;stroke-miterlimit:10;" x1="357.402" y1="392.914" x2="359.512" y2="392.914"/>
				
					<line style="fill:none;stroke:#263238;stroke-linecap:round;stroke-linejoin:round;stroke-miterlimit:10;" x1="357.402" y1="396.867" x2="359.512" y2="396.867"/>
				
					<line style="fill:none;stroke:#263238;stroke-linecap:round;stroke-linejoin:round;stroke-miterlimit:10;" x1="357.402" y1="400.82" x2="359.512" y2="400.82"/>
			</g>
		</g>
	</g>
</g>
<g id="Graphics_4">
	<g>
		<polygon style="fill:none;stroke:#263238;stroke-linecap:round;stroke-linejoin:round;stroke-miterlimit:10;" points="
			340.801,311.133 322.912,311.133 313.967,326.626 322.912,342.119 340.801,342.119 349.746,326.626 		"/>
		<polygon style="fill:none;stroke:#263238;stroke-linecap:round;stroke-linejoin:round;stroke-miterlimit:10;" points="
			340.738,279.979 322.849,279.979 313.904,295.472 322.849,310.965 340.738,310.965 349.683,295.472 		"/>
		<polygon style="fill:none;stroke:#263238;stroke-linecap:round;stroke-linejoin:round;stroke-miterlimit:10;" points="
			394.224,279.979 376.335,279.979 367.39,295.472 376.335,310.965 394.224,310.965 403.169,295.472 		"/>
		<polygon style="fill:none;stroke:#263238;stroke-linecap:round;stroke-linejoin:round;stroke-miterlimit:10;" points="
			367.711,326.382 349.821,326.382 340.877,341.875 349.821,357.368 367.711,357.368 376.656,341.875 		"/>
		<polygon style="fill:#92E3A9;stroke:#263238;stroke-linecap:round;stroke-linejoin:round;stroke-miterlimit:10;" points="
			367.636,295.64 349.746,295.64 340.801,311.133 349.746,326.626 367.636,326.626 376.581,311.133 		"/>
		<polygon style="fill:#263238;" points="366.893,264.44 349.003,264.44 340.059,279.933 349.003,295.426 366.893,295.426 
			375.838,279.933 		"/>
		<polygon style="fill:none;stroke:#263238;stroke-linecap:round;stroke-linejoin:round;stroke-miterlimit:10;" points="
			394.546,310.889 376.656,310.889 367.711,326.382 376.656,341.875 394.546,341.875 403.491,326.382 		"/>
	</g>
</g>
<g id="Graphics_3">
	<g>
		<g>
			<path style="fill:#263238;" d="M70.627,303.513h-4.198c-0.572,0-1.035-0.463-1.035-1.036c0-0.572,0.463-1.035,1.035-1.035h4.198
				c0.572,0,1.035,0.463,1.035,1.035C71.662,303.049,71.199,303.513,70.627,303.513z M71.662,307.275
				c0-0.572-0.463-1.035-1.035-1.035h-4.198c-0.572,0-1.035,0.463-1.035,1.035c0,0.572,0.463,1.035,1.035,1.035h4.198
				C71.199,308.31,71.662,307.847,71.662,307.275z M71.662,312.072c0-0.572-0.463-1.035-1.035-1.035h-4.198
				c-0.572,0-1.035,0.463-1.035,1.035c0,0.572,0.463,1.035,1.035,1.035h4.198C71.199,313.108,71.662,312.645,71.662,312.072z
				 M71.662,316.87c0-0.572-0.463-1.036-1.035-1.036h-4.198c-0.572,0-1.035,0.463-1.035,1.036c0,0.572,0.463,1.035,1.035,1.035
				h4.198C71.199,317.905,71.662,317.443,71.662,316.87z M71.662,321.668c0-0.572-0.463-1.036-1.035-1.036h-4.198
				c-0.572,0-1.035,0.463-1.035,1.036c0,0.572,0.463,1.035,1.035,1.035h4.198C71.199,322.703,71.662,322.24,71.662,321.668z
				 M71.662,326.466c0-0.572-0.463-1.035-1.035-1.035h-4.198c-0.572,0-1.035,0.463-1.035,1.035c0,0.572,0.463,1.035,1.035,1.035
				h4.198C71.199,327.502,71.662,327.039,71.662,326.466z M71.662,331.264c0-0.572-0.463-1.035-1.035-1.035h-4.198
				c-0.572,0-1.035,0.463-1.035,1.035c0,0.572,0.463,1.035,1.035,1.035h4.198C71.199,332.299,71.662,331.836,71.662,331.264z
				 M71.662,336.062c0-0.572-0.463-1.035-1.035-1.035h-4.198c-0.572,0-1.035,0.463-1.035,1.035c0,0.572,0.463,1.035,1.035,1.035
				h4.198C71.199,337.097,71.662,336.634,71.662,336.062z M87.367,302.477c0-0.572-0.463-1.035-1.035-1.035h-11.02
				c-0.572,0-1.035,0.463-1.035,1.035c0,0.572,0.463,1.036,1.035,1.036h11.02C86.904,303.513,87.367,303.049,87.367,302.477z
				 M87.367,307.275c0-0.572-0.463-1.035-1.035-1.035h-11.02c-0.572,0-1.035,0.463-1.035,1.035c0,0.572,0.463,1.035,1.035,1.035
				h11.02C86.904,308.31,87.367,307.847,87.367,307.275z M87.367,312.072c0-0.572-0.463-1.035-1.035-1.035h-11.02
				c-0.572,0-1.035,0.463-1.035,1.035c0,0.572,0.463,1.035,1.035,1.035h11.02C86.904,313.108,87.367,312.645,87.367,312.072z
				 M87.367,316.87c0-0.572-0.463-1.036-1.035-1.036h-11.02c-0.572,0-1.035,0.463-1.035,1.036c0,0.572,0.463,1.035,1.035,1.035
				h11.02C86.904,317.905,87.367,317.443,87.367,316.87z M87.367,321.668c0-0.572-0.463-1.036-1.035-1.036h-11.02
				c-0.572,0-1.035,0.463-1.035,1.036c0,0.572,0.463,1.035,1.035,1.035h11.02C86.904,322.703,87.367,322.24,87.367,321.668z
				 M100.561,326.466c0-0.572-0.463-1.035-1.035-1.035h-11.02c-0.572,0-1.035,0.463-1.035,1.035c0,0.572,0.463,1.035,1.035,1.035
				h11.02C100.098,327.502,100.561,327.039,100.561,326.466z M100.561,331.264c0-0.572-0.463-1.035-1.035-1.035h-11.02
				c-0.572,0-1.035,0.463-1.035,1.035c0,0.572,0.463,1.035,1.035,1.035h11.02C100.098,332.299,100.561,331.836,100.561,331.264z
				 M100.561,336.062c0-0.572-0.463-1.035-1.035-1.035h-11.02c-0.572,0-1.035,0.463-1.035,1.035c0,0.572,0.463,1.035,1.035,1.035
				h11.02C100.098,337.097,100.561,336.634,100.561,336.062z M92.217,302.477c0-0.662-0.537-1.199-1.199-1.199s-1.2,0.537-1.2,1.199
				c0,0.662,0.537,1.2,1.2,1.2S92.217,303.139,92.217,302.477z M95.815,302.477c0-0.662-0.537-1.199-1.199-1.199
				c-0.662,0-1.199,0.537-1.199,1.199c0,0.662,0.537,1.2,1.199,1.2C95.278,303.677,95.815,303.139,95.815,302.477z M99.414,302.477
				c0-0.662-0.537-1.199-1.199-1.199s-1.199,0.537-1.199,1.199c0,0.662,0.537,1.2,1.199,1.2S99.414,303.139,99.414,302.477z
				 M103.012,302.477c0-0.662-0.537-1.199-1.2-1.199c-0.662,0-1.199,0.537-1.199,1.199c0,0.662,0.537,1.2,1.199,1.2
				C102.475,303.677,103.012,303.139,103.012,302.477z M106.611,302.477c0-0.662-0.537-1.199-1.2-1.199
				c-0.662,0-1.199,0.537-1.199,1.199c0,0.662,0.537,1.2,1.199,1.2C106.074,303.677,106.611,303.139,106.611,302.477z
				 M110.209,302.477c0-0.662-0.537-1.199-1.2-1.199c-0.662,0-1.199,0.537-1.199,1.199c0,0.662,0.537,1.2,1.199,1.2
				C109.672,303.677,110.209,303.139,110.209,302.477z M92.217,312.073c0-0.663-0.537-1.199-1.199-1.199s-1.2,0.537-1.2,1.199
				c0,0.662,0.537,1.199,1.2,1.199S92.217,312.735,92.217,312.073z M95.815,312.073c0-0.663-0.537-1.199-1.199-1.199
				c-0.662,0-1.199,0.537-1.199,1.199c0,0.662,0.537,1.199,1.199,1.199C95.278,313.272,95.815,312.735,95.815,312.073z
				 M99.414,312.073c0-0.663-0.537-1.199-1.199-1.199s-1.199,0.537-1.199,1.199c0,0.662,0.537,1.199,1.199,1.199
				S99.414,312.735,99.414,312.073z M103.012,312.073c0-0.663-0.537-1.199-1.2-1.199c-0.662,0-1.199,0.537-1.199,1.199
				c0,0.662,0.537,1.199,1.199,1.199C102.475,313.272,103.012,312.735,103.012,312.073z M106.611,312.073
				c0-0.663-0.537-1.199-1.2-1.199c-0.662,0-1.199,0.537-1.199,1.199c0,0.662,0.537,1.199,1.199,1.199
				C106.074,313.272,106.611,312.735,106.611,312.073z M110.209,312.073c0-0.663-0.537-1.199-1.2-1.199
				c-0.662,0-1.199,0.537-1.199,1.199c0,0.662,0.537,1.199,1.199,1.199C109.672,313.272,110.209,312.735,110.209,312.073z
				 M104.511,325.866c0-0.662-0.537-1.199-1.2-1.199c-0.662,0-1.199,0.537-1.199,1.199c0,0.663,0.537,1.199,1.199,1.199
				C103.974,327.066,104.511,326.529,104.511,325.866z M108.11,325.866c0-0.662-0.537-1.199-1.2-1.199
				c-0.662,0-1.199,0.537-1.199,1.199c0,0.663,0.537,1.199,1.199,1.199C107.573,327.066,108.11,326.529,108.11,325.866z
				 M111.708,325.866c0-0.662-0.537-1.199-1.2-1.199s-1.2,0.537-1.2,1.199c0,0.663,0.537,1.199,1.2,1.199
				S111.708,326.529,111.708,325.866z M115.306,325.866c0-0.662-0.537-1.199-1.199-1.199c-0.663,0-1.199,0.537-1.199,1.199
				c0,0.663,0.537,1.199,1.199,1.199C114.769,327.066,115.306,326.529,115.306,325.866z M118.905,325.866
				c0-0.662-0.537-1.199-1.199-1.199c-0.662,0-1.2,0.537-1.2,1.199c0,0.663,0.537,1.199,1.2,1.199
				C118.368,327.066,118.905,326.529,118.905,325.866z M122.503,325.866c0-0.662-0.537-1.199-1.2-1.199
				c-0.662,0-1.199,0.537-1.199,1.199c0,0.663,0.537,1.199,1.199,1.199C121.966,327.066,122.503,326.529,122.503,325.866z
				 M104.511,335.762c0-0.662-0.537-1.2-1.2-1.2c-0.662,0-1.199,0.537-1.199,1.2c0,0.662,0.537,1.199,1.199,1.199
				C103.974,336.961,104.511,336.424,104.511,335.762z M108.11,335.762c0-0.662-0.537-1.2-1.2-1.2c-0.662,0-1.199,0.537-1.199,1.2
				c0,0.662,0.537,1.199,1.199,1.199C107.573,336.961,108.11,336.424,108.11,335.762z M111.708,335.762c0-0.662-0.537-1.2-1.2-1.2
				s-1.2,0.537-1.2,1.2c0,0.662,0.537,1.199,1.2,1.199S111.708,336.424,111.708,335.762z M115.306,335.762
				c0-0.662-0.537-1.2-1.199-1.2c-0.663,0-1.199,0.537-1.199,1.2c0,0.662,0.537,1.199,1.199,1.199
				C114.769,336.961,115.306,336.424,115.306,335.762z M118.905,335.762c0-0.662-0.537-1.2-1.199-1.2c-0.662,0-1.2,0.537-1.2,1.2
				c0,0.662,0.537,1.199,1.2,1.199C118.368,336.961,118.905,336.424,118.905,335.762z M122.503,335.762c0-0.662-0.537-1.2-1.2-1.2
				c-0.662,0-1.199,0.537-1.199,1.2c0,0.662,0.537,1.199,1.199,1.199C121.966,336.961,122.503,336.424,122.503,335.762z"/>
			<path style="fill:#263238;" d="M70.627,341.905h-4.198c-0.572,0-1.035-0.463-1.035-1.035c0-0.572,0.463-1.035,1.035-1.035h4.198
				c0.572,0,1.035,0.463,1.035,1.035C71.662,341.442,71.199,341.905,70.627,341.905z M71.662,345.667
				c0-0.572-0.463-1.035-1.035-1.035h-4.198c-0.572,0-1.035,0.463-1.035,1.035c0,0.572,0.463,1.035,1.035,1.035h4.198
				C71.199,346.703,71.662,346.239,71.662,345.667z M71.662,350.465c0-0.572-0.463-1.035-1.035-1.035h-4.198
				c-0.572,0-1.035,0.463-1.035,1.035c0,0.572,0.463,1.035,1.035,1.035h4.198C71.199,351.5,71.662,351.037,71.662,350.465z
				 M71.662,355.263c0-0.572-0.463-1.035-1.035-1.035h-4.198c-0.572,0-1.035,0.463-1.035,1.035c0,0.572,0.463,1.035,1.035,1.035
				h4.198C71.199,356.298,71.662,355.835,71.662,355.263z M71.662,360.06c0-0.572-0.463-1.035-1.035-1.035h-4.198
				c-0.572,0-1.035,0.463-1.035,1.035c0,0.572,0.463,1.035,1.035,1.035h4.198C71.199,361.096,71.662,360.633,71.662,360.06z
				 M71.662,364.859c0-0.572-0.463-1.035-1.035-1.035h-4.198c-0.572,0-1.035,0.463-1.035,1.035c0,0.572,0.463,1.036,1.035,1.036
				h4.198C71.199,365.895,71.662,365.431,71.662,364.859z M71.662,369.657c0-0.572-0.463-1.035-1.035-1.035h-4.198
				c-0.572,0-1.035,0.463-1.035,1.035c0,0.572,0.463,1.035,1.035,1.035h4.198C71.199,370.692,71.662,370.229,71.662,369.657z
				 M71.662,374.454c0-0.572-0.463-1.035-1.035-1.035h-4.198c-0.572,0-1.035,0.463-1.035,1.035c0,0.572,0.463,1.035,1.035,1.035
				h4.198C71.199,375.49,71.662,375.026,71.662,374.454z M87.367,340.87c0-0.572-0.463-1.035-1.035-1.035h-11.02
				c-0.572,0-1.035,0.463-1.035,1.035c0,0.572,0.463,1.035,1.035,1.035h11.02C86.904,341.905,87.367,341.442,87.367,340.87z
				 M87.367,345.667c0-0.572-0.463-1.035-1.035-1.035h-11.02c-0.572,0-1.035,0.463-1.035,1.035c0,0.572,0.463,1.035,1.035,1.035
				h11.02C86.904,346.703,87.367,346.239,87.367,345.667z M87.367,350.465c0-0.572-0.463-1.035-1.035-1.035h-11.02
				c-0.572,0-1.035,0.463-1.035,1.035c0,0.572,0.463,1.035,1.035,1.035h11.02C86.904,351.5,87.367,351.037,87.367,350.465z
				 M87.367,355.263c0-0.572-0.463-1.035-1.035-1.035h-11.02c-0.572,0-1.035,0.463-1.035,1.035c0,0.572,0.463,1.035,1.035,1.035
				h11.02C86.904,356.298,87.367,355.835,87.367,355.263z M87.367,360.06c0-0.572-0.463-1.035-1.035-1.035h-11.02
				c-0.572,0-1.035,0.463-1.035,1.035c0,0.572,0.463,1.035,1.035,1.035h11.02C86.904,361.096,87.367,360.633,87.367,360.06z
				 M100.561,364.859c0-0.572-0.463-1.035-1.035-1.035h-11.02c-0.572,0-1.035,0.463-1.035,1.035c0,0.572,0.463,1.036,1.035,1.036
				h11.02C100.098,365.895,100.561,365.431,100.561,364.859z M100.561,369.657c0-0.572-0.463-1.035-1.035-1.035h-11.02
				c-0.572,0-1.035,0.463-1.035,1.035c0,0.572,0.463,1.035,1.035,1.035h11.02C100.098,370.692,100.561,370.229,100.561,369.657z
				 M100.561,374.454c0-0.572-0.463-1.035-1.035-1.035h-11.02c-0.572,0-1.035,0.463-1.035,1.035c0,0.572,0.463,1.035,1.035,1.035
				h11.02C100.098,375.49,100.561,375.026,100.561,374.454z M92.217,340.87c0-0.663-0.537-1.2-1.199-1.2s-1.2,0.537-1.2,1.2
				c0,0.662,0.537,1.199,1.2,1.199S92.217,341.532,92.217,340.87z M95.815,340.87c0-0.663-0.537-1.2-1.199-1.2
				c-0.662,0-1.199,0.537-1.199,1.2c0,0.662,0.537,1.199,1.199,1.199C95.278,342.069,95.815,341.532,95.815,340.87z M99.414,340.87
				c0-0.663-0.537-1.2-1.199-1.2s-1.199,0.537-1.199,1.2c0,0.662,0.537,1.199,1.199,1.199S99.414,341.532,99.414,340.87z
				 M103.012,340.87c0-0.663-0.537-1.2-1.2-1.2c-0.662,0-1.199,0.537-1.199,1.2c0,0.662,0.537,1.199,1.199,1.199
				C102.475,342.069,103.012,341.532,103.012,340.87z M106.611,340.87c0-0.663-0.537-1.2-1.2-1.2c-0.662,0-1.199,0.537-1.199,1.2
				c0,0.662,0.537,1.199,1.199,1.199C106.074,342.069,106.611,341.532,106.611,340.87z M110.209,340.87c0-0.663-0.537-1.2-1.2-1.2
				c-0.662,0-1.199,0.537-1.199,1.2c0,0.662,0.537,1.199,1.199,1.199C109.672,342.069,110.209,341.532,110.209,340.87z
				 M92.217,350.465c0-0.663-0.537-1.2-1.199-1.2s-1.2,0.537-1.2,1.2c0,0.662,0.537,1.199,1.2,1.199S92.217,351.127,92.217,350.465z
				 M95.815,350.465c0-0.663-0.537-1.2-1.199-1.2c-0.662,0-1.199,0.537-1.199,1.2c0,0.662,0.537,1.199,1.199,1.199
				C95.278,351.665,95.815,351.127,95.815,350.465z M99.414,350.465c0-0.663-0.537-1.2-1.199-1.2s-1.199,0.537-1.199,1.2
				c0,0.662,0.537,1.199,1.199,1.199S99.414,351.127,99.414,350.465z M103.012,350.465c0-0.663-0.537-1.2-1.2-1.2
				c-0.662,0-1.199,0.537-1.199,1.2c0,0.662,0.537,1.199,1.199,1.199C102.475,351.665,103.012,351.127,103.012,350.465z
				 M106.611,350.465c0-0.663-0.537-1.2-1.2-1.2c-0.662,0-1.199,0.537-1.199,1.2c0,0.662,0.537,1.199,1.199,1.199
				C106.074,351.665,106.611,351.127,106.611,350.465z M110.209,350.465c0-0.663-0.537-1.2-1.2-1.2c-0.662,0-1.199,0.537-1.199,1.2
				c0,0.662,0.537,1.199,1.199,1.199C109.672,351.665,110.209,351.127,110.209,350.465z M104.511,364.259
				c0-0.662-0.537-1.199-1.2-1.199c-0.662,0-1.199,0.537-1.199,1.199c0,0.663,0.537,1.199,1.199,1.199
				C103.974,365.458,104.511,364.921,104.511,364.259z M108.11,364.259c0-0.662-0.537-1.199-1.2-1.199
				c-0.662,0-1.199,0.537-1.199,1.199c0,0.663,0.537,1.199,1.199,1.199C107.573,365.458,108.11,364.921,108.11,364.259z
				 M111.708,364.259c0-0.662-0.537-1.199-1.2-1.199s-1.2,0.537-1.2,1.199c0,0.663,0.537,1.199,1.2,1.199
				S111.708,364.921,111.708,364.259z M115.306,364.259c0-0.662-0.537-1.199-1.199-1.199c-0.663,0-1.199,0.537-1.199,1.199
				c0,0.663,0.537,1.199,1.199,1.199C114.769,365.458,115.306,364.921,115.306,364.259z M118.905,364.259
				c0-0.662-0.537-1.199-1.199-1.199c-0.662,0-1.2,0.537-1.2,1.199c0,0.663,0.537,1.199,1.2,1.199
				C118.368,365.458,118.905,364.921,118.905,364.259z M122.503,364.259c0-0.662-0.537-1.199-1.2-1.199
				c-0.662,0-1.199,0.537-1.199,1.199c0,0.663,0.537,1.199,1.199,1.199C121.966,365.458,122.503,364.921,122.503,364.259z
				 M104.511,374.154c0-0.662-0.537-1.199-1.2-1.199c-0.662,0-1.199,0.537-1.199,1.199c0,0.663,0.537,1.199,1.199,1.199
				C103.974,375.354,104.511,374.817,104.511,374.154z M108.11,374.154c0-0.662-0.537-1.199-1.2-1.199
				c-0.662,0-1.199,0.537-1.199,1.199c0,0.663,0.537,1.199,1.199,1.199C107.573,375.354,108.11,374.817,108.11,374.154z
				 M111.708,374.154c0-0.662-0.537-1.199-1.2-1.199s-1.2,0.537-1.2,1.199c0,0.663,0.537,1.199,1.2,1.199
				S111.708,374.817,111.708,374.154z M115.306,374.154c0-0.662-0.537-1.199-1.199-1.199c-0.663,0-1.199,0.537-1.199,1.199
				c0,0.663,0.537,1.199,1.199,1.199C114.769,375.354,115.306,374.817,115.306,374.154z M118.905,374.154
				c0-0.662-0.537-1.199-1.199-1.199c-0.662,0-1.2,0.537-1.2,1.199c0,0.663,0.537,1.199,1.2,1.199
				C118.368,375.354,118.905,374.817,118.905,374.154z M122.503,374.154c0-0.662-0.537-1.199-1.2-1.199
				c-0.662,0-1.199,0.537-1.199,1.199c0,0.663,0.537,1.199,1.199,1.199C121.966,375.354,122.503,374.817,122.503,374.154z"/>
			<path style="fill:#263238;" d="M70.627,381.224h-4.198c-0.572,0-1.035-0.463-1.035-1.035c0-0.572,0.463-1.035,1.035-1.035h4.198
				c0.572,0,1.035,0.463,1.035,1.035C71.662,380.761,71.199,381.224,70.627,381.224z M71.662,384.987
				c0-0.572-0.463-1.035-1.035-1.035h-4.198c-0.572,0-1.035,0.463-1.035,1.035c0,0.572,0.463,1.035,1.035,1.035h4.198
				C71.199,386.022,71.662,385.559,71.662,384.987z M71.662,389.784c0-0.572-0.463-1.035-1.035-1.035h-4.198
				c-0.572,0-1.035,0.463-1.035,1.035c0,0.572,0.463,1.035,1.035,1.035h4.198C71.199,390.82,71.662,390.357,71.662,389.784z
				 M71.662,394.582c0-0.572-0.463-1.035-1.035-1.035h-4.198c-0.572,0-1.035,0.463-1.035,1.035c0,0.572,0.463,1.035,1.035,1.035
				h4.198C71.199,395.617,71.662,395.154,71.662,394.582z M71.662,399.38c0-0.572-0.463-1.035-1.035-1.035h-4.198
				c-0.572,0-1.035,0.463-1.035,1.035c0,0.572,0.463,1.035,1.035,1.035h4.198C71.199,400.415,71.662,399.952,71.662,399.38z
				 M71.662,404.178c0-0.572-0.463-1.035-1.035-1.035h-4.198c-0.572,0-1.035,0.463-1.035,1.035c0,0.572,0.463,1.035,1.035,1.035
				h4.198C71.199,405.214,71.662,404.751,71.662,404.178z M71.662,408.976c0-0.572-0.463-1.035-1.035-1.035h-4.198
				c-0.572,0-1.035,0.463-1.035,1.035c0,0.572,0.463,1.035,1.035,1.035h4.198C71.199,410.011,71.662,409.548,71.662,408.976z
				 M71.662,413.774c0-0.572-0.463-1.035-1.035-1.035h-4.198c-0.572,0-1.035,0.463-1.035,1.035c0,0.572,0.463,1.036,1.035,1.036
				h4.198C71.199,414.809,71.662,414.346,71.662,413.774z M87.367,380.189c0-0.572-0.463-1.035-1.035-1.035h-11.02
				c-0.572,0-1.035,0.463-1.035,1.035c0,0.572,0.463,1.035,1.035,1.035h11.02C86.904,381.224,87.367,380.761,87.367,380.189z
				 M87.367,384.987c0-0.572-0.463-1.035-1.035-1.035h-11.02c-0.572,0-1.035,0.463-1.035,1.035c0,0.572,0.463,1.035,1.035,1.035
				h11.02C86.904,386.022,87.367,385.559,87.367,384.987z M87.367,389.784c0-0.572-0.463-1.035-1.035-1.035h-11.02
				c-0.572,0-1.035,0.463-1.035,1.035c0,0.572,0.463,1.035,1.035,1.035h11.02C86.904,390.82,87.367,390.357,87.367,389.784z
				 M87.367,394.582c0-0.572-0.463-1.035-1.035-1.035h-11.02c-0.572,0-1.035,0.463-1.035,1.035c0,0.572,0.463,1.035,1.035,1.035
				h11.02C86.904,395.617,87.367,395.154,87.367,394.582z M87.367,399.38c0-0.572-0.463-1.035-1.035-1.035h-11.02
				c-0.572,0-1.035,0.463-1.035,1.035c0,0.572,0.463,1.035,1.035,1.035h11.02C86.904,400.415,87.367,399.952,87.367,399.38z
				 M100.561,404.178c0-0.572-0.463-1.035-1.035-1.035h-11.02c-0.572,0-1.035,0.463-1.035,1.035c0,0.572,0.463,1.035,1.035,1.035
				h11.02C100.098,405.214,100.561,404.751,100.561,404.178z M100.561,408.976c0-0.572-0.463-1.035-1.035-1.035h-11.02
				c-0.572,0-1.035,0.463-1.035,1.035c0,0.572,0.463,1.035,1.035,1.035h11.02C100.098,410.011,100.561,409.548,100.561,408.976z
				 M100.561,413.774c0-0.572-0.463-1.035-1.035-1.035h-11.02c-0.572,0-1.035,0.463-1.035,1.035c0,0.572,0.463,1.036,1.035,1.036
				h11.02C100.098,414.809,100.561,414.346,100.561,413.774z M92.217,380.189c0-0.662-0.537-1.199-1.199-1.199s-1.2,0.537-1.2,1.199
				c0,0.663,0.537,1.199,1.2,1.199S92.217,380.851,92.217,380.189z M95.815,380.189c0-0.662-0.537-1.199-1.199-1.199
				c-0.662,0-1.199,0.537-1.199,1.199c0,0.663,0.537,1.199,1.199,1.199C95.278,381.388,95.815,380.851,95.815,380.189z
				 M99.414,380.189c0-0.662-0.537-1.199-1.199-1.199s-1.199,0.537-1.199,1.199c0,0.663,0.537,1.199,1.199,1.199
				S99.414,380.851,99.414,380.189z M103.012,380.189c0-0.662-0.537-1.199-1.2-1.199c-0.662,0-1.199,0.537-1.199,1.199
				c0,0.663,0.537,1.199,1.199,1.199C102.475,381.388,103.012,380.851,103.012,380.189z M106.611,380.189
				c0-0.662-0.537-1.199-1.2-1.199c-0.662,0-1.199,0.537-1.199,1.199c0,0.663,0.537,1.199,1.199,1.199
				C106.074,381.388,106.611,380.851,106.611,380.189z M110.209,380.189c0-0.662-0.537-1.199-1.2-1.199
				c-0.662,0-1.199,0.537-1.199,1.199c0,0.663,0.537,1.199,1.199,1.199C109.672,381.388,110.209,380.851,110.209,380.189z
				 M92.217,389.784c0-0.662-0.537-1.199-1.199-1.199s-1.2,0.537-1.2,1.199c0,0.663,0.537,1.2,1.2,1.2
				S92.217,390.447,92.217,389.784z M95.815,389.784c0-0.662-0.537-1.199-1.199-1.199c-0.662,0-1.199,0.537-1.199,1.199
				c0,0.663,0.537,1.2,1.199,1.2C95.278,390.984,95.815,390.447,95.815,389.784z M99.414,389.784c0-0.662-0.537-1.199-1.199-1.199
				s-1.199,0.537-1.199,1.199c0,0.663,0.537,1.2,1.199,1.2S99.414,390.447,99.414,389.784z M103.012,389.784
				c0-0.662-0.537-1.199-1.2-1.199c-0.662,0-1.199,0.537-1.199,1.199c0,0.663,0.537,1.2,1.199,1.2
				C102.475,390.984,103.012,390.447,103.012,389.784z M106.611,389.784c0-0.662-0.537-1.199-1.2-1.199
				c-0.662,0-1.199,0.537-1.199,1.199c0,0.663,0.537,1.2,1.199,1.2C106.074,390.984,106.611,390.447,106.611,389.784z
				 M110.209,389.784c0-0.662-0.537-1.199-1.2-1.199c-0.662,0-1.199,0.537-1.199,1.199c0,0.663,0.537,1.2,1.199,1.2
				C109.672,390.984,110.209,390.447,110.209,389.784z M104.511,403.578c0-0.662-0.537-1.199-1.2-1.199
				c-0.662,0-1.199,0.537-1.199,1.199c0,0.663,0.537,1.2,1.199,1.2C103.974,404.778,104.511,404.241,104.511,403.578z
				 M108.11,403.578c0-0.662-0.537-1.199-1.2-1.199c-0.662,0-1.199,0.537-1.199,1.199c0,0.663,0.537,1.2,1.199,1.2
				C107.573,404.778,108.11,404.241,108.11,403.578z M111.708,403.578c0-0.662-0.537-1.199-1.2-1.199s-1.2,0.537-1.2,1.199
				c0,0.663,0.537,1.2,1.2,1.2S111.708,404.241,111.708,403.578z M115.306,403.578c0-0.662-0.537-1.199-1.199-1.199
				c-0.663,0-1.199,0.537-1.199,1.199c0,0.663,0.537,1.2,1.199,1.2C114.769,404.778,115.306,404.241,115.306,403.578z
				 M118.905,403.578c0-0.662-0.537-1.199-1.199-1.199c-0.662,0-1.2,0.537-1.2,1.199c0,0.663,0.537,1.2,1.2,1.2
				C118.368,404.778,118.905,404.241,118.905,403.578z M122.503,403.578c0-0.662-0.537-1.199-1.2-1.199
				c-0.662,0-1.199,0.537-1.199,1.199c0,0.663,0.537,1.2,1.199,1.2C121.966,404.778,122.503,404.241,122.503,403.578z
				 M104.511,413.474c0-0.663-0.537-1.199-1.2-1.199c-0.662,0-1.199,0.537-1.199,1.199c0,0.662,0.537,1.199,1.199,1.199
				C103.974,414.673,104.511,414.136,104.511,413.474z M108.11,413.474c0-0.663-0.537-1.199-1.2-1.199
				c-0.662,0-1.199,0.537-1.199,1.199c0,0.662,0.537,1.199,1.199,1.199C107.573,414.673,108.11,414.136,108.11,413.474z
				 M111.708,413.474c0-0.663-0.537-1.199-1.2-1.199s-1.2,0.537-1.2,1.199c0,0.662,0.537,1.199,1.2,1.199
				S111.708,414.136,111.708,413.474z M115.306,413.474c0-0.663-0.537-1.199-1.199-1.199c-0.663,0-1.199,0.537-1.199,1.199
				c0,0.662,0.537,1.199,1.199,1.199C114.769,414.673,115.306,414.136,115.306,413.474z M118.905,413.474
				c0-0.663-0.537-1.199-1.199-1.199c-0.662,0-1.2,0.537-1.2,1.199c0,0.662,0.537,1.199,1.2,1.199
				C118.368,414.673,118.905,414.136,118.905,413.474z M122.503,413.474c0-0.663-0.537-1.199-1.2-1.199
				c-0.662,0-1.199,0.537-1.199,1.199c0,0.662,0.537,1.199,1.199,1.199C121.966,414.673,122.503,414.136,122.503,413.474z"/>
			<path style="fill:#263238;" d="M135.08,303.513h-4.198c-0.572,0-1.035-0.463-1.035-1.036c0-0.572,0.463-1.035,1.035-1.035h4.198
				c0.572,0,1.036,0.463,1.036,1.035C136.115,303.049,135.652,303.513,135.08,303.513z M136.115,307.275
				c0-0.572-0.463-1.035-1.036-1.035h-4.198c-0.572,0-1.035,0.463-1.035,1.035c0,0.572,0.463,1.035,1.035,1.035h4.198
				C135.652,308.31,136.115,307.847,136.115,307.275z M136.115,312.072c0-0.572-0.463-1.035-1.036-1.035h-4.198
				c-0.572,0-1.035,0.463-1.035,1.035c0,0.572,0.463,1.035,1.035,1.035h4.198C135.652,313.108,136.115,312.645,136.115,312.072z
				 M136.115,316.87c0-0.572-0.463-1.036-1.036-1.036h-4.198c-0.572,0-1.035,0.463-1.035,1.036c0,0.572,0.463,1.035,1.035,1.035
				h4.198C135.652,317.905,136.115,317.443,136.115,316.87z M136.115,321.668c0-0.572-0.463-1.036-1.036-1.036h-4.198
				c-0.572,0-1.035,0.463-1.035,1.036c0,0.572,0.463,1.035,1.035,1.035h4.198C135.652,322.703,136.115,322.24,136.115,321.668z
				 M136.115,326.466c0-0.572-0.463-1.035-1.036-1.035h-4.198c-0.572,0-1.035,0.463-1.035,1.035c0,0.572,0.463,1.035,1.035,1.035
				h4.198C135.652,327.502,136.115,327.039,136.115,326.466z M136.115,331.264c0-0.572-0.463-1.035-1.036-1.035h-4.198
				c-0.572,0-1.035,0.463-1.035,1.035c0,0.572,0.463,1.035,1.035,1.035h4.198C135.652,332.299,136.115,331.836,136.115,331.264z
				 M136.115,336.062c0-0.572-0.463-1.035-1.036-1.035h-4.198c-0.572,0-1.035,0.463-1.035,1.035c0,0.572,0.463,1.035,1.035,1.035
				h4.198C135.652,337.097,136.115,336.634,136.115,336.062z M151.821,302.477c0-0.572-0.463-1.035-1.035-1.035h-11.02
				c-0.572,0-1.036,0.463-1.036,1.035c0,0.572,0.463,1.036,1.036,1.036h11.02C151.358,303.513,151.821,303.049,151.821,302.477z
				 M151.821,307.275c0-0.572-0.463-1.035-1.035-1.035h-11.02c-0.572,0-1.036,0.463-1.036,1.035c0,0.572,0.463,1.035,1.036,1.035
				h11.02C151.358,308.31,151.821,307.847,151.821,307.275z M151.821,312.072c0-0.572-0.463-1.035-1.035-1.035h-11.02
				c-0.572,0-1.036,0.463-1.036,1.035c0,0.572,0.463,1.035,1.036,1.035h11.02C151.358,313.108,151.821,312.645,151.821,312.072z
				 M151.821,316.87c0-0.572-0.463-1.036-1.035-1.036h-11.02c-0.572,0-1.036,0.463-1.036,1.036c0,0.572,0.463,1.035,1.036,1.035
				h11.02C151.358,317.905,151.821,317.443,151.821,316.87z M151.821,321.668c0-0.572-0.463-1.036-1.035-1.036h-11.02
				c-0.572,0-1.036,0.463-1.036,1.036c0,0.572,0.463,1.035,1.036,1.035h11.02C151.358,322.703,151.821,322.24,151.821,321.668z
				 M165.015,326.466c0-0.572-0.463-1.035-1.035-1.035h-11.02c-0.572,0-1.035,0.463-1.035,1.035c0,0.572,0.463,1.035,1.035,1.035
				h11.02C164.552,327.502,165.015,327.039,165.015,326.466z M165.015,331.264c0-0.572-0.463-1.035-1.035-1.035h-11.02
				c-0.572,0-1.035,0.463-1.035,1.035c0,0.572,0.463,1.035,1.035,1.035h11.02C164.552,332.299,165.015,331.836,165.015,331.264z
				 M165.015,336.062c0-0.572-0.463-1.035-1.035-1.035h-11.02c-0.572,0-1.035,0.463-1.035,1.035c0,0.572,0.463,1.035,1.035,1.035
				h11.02C164.552,337.097,165.015,336.634,165.015,336.062z M156.671,302.477c0-0.662-0.537-1.199-1.199-1.199
				c-0.663,0-1.2,0.537-1.2,1.199c0,0.662,0.537,1.2,1.2,1.2C156.133,303.677,156.671,303.139,156.671,302.477z M160.269,302.477
				c0-0.662-0.537-1.199-1.199-1.199c-0.663,0-1.2,0.537-1.2,1.199c0,0.662,0.537,1.2,1.2,1.2
				C159.732,303.677,160.269,303.139,160.269,302.477z M163.867,302.477c0-0.662-0.537-1.199-1.2-1.199
				c-0.662,0-1.199,0.537-1.199,1.199c0,0.662,0.537,1.2,1.199,1.2C163.33,303.677,163.867,303.139,163.867,302.477z
				 M167.465,302.477c0-0.662-0.537-1.199-1.199-1.199c-0.663,0-1.199,0.537-1.199,1.199c0,0.662,0.537,1.2,1.199,1.2
				C166.928,303.677,167.465,303.139,167.465,302.477z M171.064,302.477c0-0.662-0.537-1.199-1.199-1.199
				c-0.662,0-1.199,0.537-1.199,1.199c0,0.662,0.537,1.2,1.199,1.2C170.527,303.677,171.064,303.139,171.064,302.477z
				 M174.662,302.477c0-0.662-0.537-1.199-1.2-1.199c-0.662,0-1.199,0.537-1.199,1.199c0,0.662,0.537,1.2,1.199,1.2
				C174.125,303.677,174.662,303.139,174.662,302.477z M156.671,312.073c0-0.663-0.537-1.199-1.199-1.199
				c-0.663,0-1.2,0.537-1.2,1.199c0,0.662,0.537,1.199,1.2,1.199C156.133,313.272,156.671,312.735,156.671,312.073z
				 M160.269,312.073c0-0.663-0.537-1.199-1.199-1.199c-0.663,0-1.2,0.537-1.2,1.199c0,0.662,0.537,1.199,1.2,1.199
				C159.732,313.272,160.269,312.735,160.269,312.073z M163.867,312.073c0-0.663-0.537-1.199-1.2-1.199
				c-0.662,0-1.199,0.537-1.199,1.199c0,0.662,0.537,1.199,1.199,1.199C163.33,313.272,163.867,312.735,163.867,312.073z
				 M167.465,312.073c0-0.663-0.537-1.199-1.199-1.199c-0.663,0-1.199,0.537-1.199,1.199c0,0.662,0.537,1.199,1.199,1.199
				C166.928,313.272,167.465,312.735,167.465,312.073z M171.064,312.073c0-0.663-0.537-1.199-1.199-1.199
				c-0.662,0-1.199,0.537-1.199,1.199c0,0.662,0.537,1.199,1.199,1.199C170.527,313.272,171.064,312.735,171.064,312.073z
				 M174.662,312.073c0-0.663-0.537-1.199-1.2-1.199c-0.662,0-1.199,0.537-1.199,1.199c0,0.662,0.537,1.199,1.199,1.199
				C174.125,313.272,174.662,312.735,174.662,312.073z M168.965,325.866c0-0.662-0.537-1.199-1.2-1.199
				c-0.662,0-1.199,0.537-1.199,1.199c0,0.663,0.537,1.199,1.199,1.199C168.428,327.066,168.965,326.529,168.965,325.866z
				 M172.563,325.866c0-0.662-0.537-1.199-1.2-1.199c-0.662,0-1.199,0.537-1.199,1.199c0,0.663,0.537,1.199,1.199,1.199
				C172.026,327.066,172.563,326.529,172.563,325.866z M176.161,325.866c0-0.662-0.537-1.199-1.199-1.199
				c-0.662,0-1.2,0.537-1.2,1.199c0,0.663,0.537,1.199,1.2,1.199C175.625,327.066,176.161,326.529,176.161,325.866z M179.76,325.866
				c0-0.662-0.537-1.199-1.2-1.199c-0.663,0-1.199,0.537-1.199,1.199c0,0.663,0.537,1.199,1.199,1.199
				C179.223,327.066,179.76,326.529,179.76,325.866z M183.358,325.866c0-0.662-0.537-1.199-1.199-1.199
				c-0.663,0-1.2,0.537-1.2,1.199c0,0.663,0.537,1.199,1.2,1.199C182.821,327.066,183.358,326.529,183.358,325.866z
				 M186.956,325.866c0-0.662-0.537-1.199-1.199-1.199s-1.199,0.537-1.199,1.199c0,0.663,0.537,1.199,1.199,1.199
				S186.956,326.529,186.956,325.866z M168.965,335.762c0-0.662-0.537-1.2-1.2-1.2c-0.662,0-1.199,0.537-1.199,1.2
				c0,0.662,0.537,1.199,1.199,1.199C168.428,336.961,168.965,336.424,168.965,335.762z M172.563,335.762c0-0.662-0.537-1.2-1.2-1.2
				c-0.662,0-1.199,0.537-1.199,1.2c0,0.662,0.537,1.199,1.199,1.199C172.026,336.961,172.563,336.424,172.563,335.762z
				 M176.161,335.762c0-0.662-0.537-1.2-1.199-1.2c-0.662,0-1.2,0.537-1.2,1.2c0,0.662,0.537,1.199,1.2,1.199
				C175.625,336.961,176.161,336.424,176.161,335.762z M179.76,335.762c0-0.662-0.537-1.2-1.2-1.2c-0.663,0-1.199,0.537-1.199,1.2
				c0,0.662,0.537,1.199,1.199,1.199C179.223,336.961,179.76,336.424,179.76,335.762z M183.358,335.762c0-0.662-0.537-1.2-1.199-1.2
				c-0.663,0-1.2,0.537-1.2,1.2c0,0.662,0.537,1.199,1.2,1.199C182.821,336.961,183.358,336.424,183.358,335.762z M186.956,335.762
				c0-0.662-0.537-1.2-1.199-1.2s-1.199,0.537-1.199,1.2c0,0.662,0.537,1.199,1.199,1.199S186.956,336.424,186.956,335.762z"/>
			<path style="fill:#263238;" d="M135.08,342.832h-4.198c-0.572,0-1.035-0.463-1.035-1.035c0-0.572,0.463-1.035,1.035-1.035h4.198
				c0.572,0,1.036,0.463,1.036,1.035C136.115,342.369,135.652,342.832,135.08,342.832z M136.115,346.594
				c0-0.572-0.463-1.035-1.036-1.035h-4.198c-0.572,0-1.035,0.463-1.035,1.035c0,0.572,0.463,1.035,1.035,1.035h4.198
				C135.652,347.629,136.115,347.167,136.115,346.594z M136.115,351.392c0-0.572-0.463-1.035-1.036-1.035h-4.198
				c-0.572,0-1.035,0.463-1.035,1.035c0,0.572,0.463,1.035,1.035,1.035h4.198C135.652,352.427,136.115,351.964,136.115,351.392z
				 M136.115,356.19c0-0.572-0.463-1.035-1.036-1.035h-4.198c-0.572,0-1.035,0.463-1.035,1.035c0,0.572,0.463,1.035,1.035,1.035
				h4.198C135.652,357.225,136.115,356.762,136.115,356.19z M136.115,360.987c0-0.572-0.463-1.035-1.036-1.035h-4.198
				c-0.572,0-1.035,0.463-1.035,1.035c0,0.572,0.463,1.036,1.035,1.036h4.198C135.652,362.023,136.115,361.56,136.115,360.987z
				 M136.115,365.786c0-0.572-0.463-1.035-1.036-1.035h-4.198c-0.572,0-1.035,0.463-1.035,1.035c0,0.572,0.463,1.035,1.035,1.035
				h4.198C135.652,366.821,136.115,366.358,136.115,365.786z M136.115,370.584c0-0.572-0.463-1.035-1.036-1.035h-4.198
				c-0.572,0-1.035,0.463-1.035,1.035c0,0.572,0.463,1.035,1.035,1.035h4.198C135.652,371.619,136.115,371.156,136.115,370.584z
				 M136.115,375.381c0-0.572-0.463-1.035-1.036-1.035h-4.198c-0.572,0-1.035,0.463-1.035,1.035c0,0.572,0.463,1.035,1.035,1.035
				h4.198C135.652,376.417,136.115,375.953,136.115,375.381z M151.821,341.797c0-0.572-0.463-1.035-1.035-1.035h-11.02
				c-0.572,0-1.036,0.463-1.036,1.035c0,0.572,0.463,1.035,1.036,1.035h11.02C151.358,342.832,151.821,342.369,151.821,341.797z
				 M151.821,346.594c0-0.572-0.463-1.035-1.035-1.035h-11.02c-0.572,0-1.036,0.463-1.036,1.035c0,0.572,0.463,1.035,1.036,1.035
				h11.02C151.358,347.629,151.821,347.167,151.821,346.594z M151.821,351.392c0-0.572-0.463-1.035-1.035-1.035h-11.02
				c-0.572,0-1.036,0.463-1.036,1.035c0,0.572,0.463,1.035,1.036,1.035h11.02C151.358,352.427,151.821,351.964,151.821,351.392z
				 M151.821,356.19c0-0.572-0.463-1.035-1.035-1.035h-11.02c-0.572,0-1.036,0.463-1.036,1.035c0,0.572,0.463,1.035,1.036,1.035
				h11.02C151.358,357.225,151.821,356.762,151.821,356.19z M151.821,360.987c0-0.572-0.463-1.035-1.035-1.035h-11.02
				c-0.572,0-1.036,0.463-1.036,1.035c0,0.572,0.463,1.036,1.036,1.036h11.02C151.358,362.023,151.821,361.56,151.821,360.987z
				 M165.015,365.786c0-0.572-0.463-1.035-1.035-1.035h-11.02c-0.572,0-1.035,0.463-1.035,1.035c0,0.572,0.463,1.035,1.035,1.035
				h11.02C164.552,366.821,165.015,366.358,165.015,365.786z M165.015,370.584c0-0.572-0.463-1.035-1.035-1.035h-11.02
				c-0.572,0-1.035,0.463-1.035,1.035c0,0.572,0.463,1.035,1.035,1.035h11.02C164.552,371.619,165.015,371.156,165.015,370.584z
				 M165.015,375.381c0-0.572-0.463-1.035-1.035-1.035h-11.02c-0.572,0-1.035,0.463-1.035,1.035c0,0.572,0.463,1.035,1.035,1.035
				h11.02C164.552,376.417,165.015,375.953,165.015,375.381z M156.671,341.796c0-0.662-0.537-1.199-1.199-1.199
				c-0.663,0-1.2,0.537-1.2,1.199c0,0.663,0.537,1.2,1.2,1.2C156.133,342.996,156.671,342.459,156.671,341.796z M160.269,341.796
				c0-0.662-0.537-1.199-1.199-1.199c-0.663,0-1.2,0.537-1.2,1.199c0,0.663,0.537,1.2,1.2,1.2
				C159.732,342.996,160.269,342.459,160.269,341.796z M163.867,341.796c0-0.662-0.537-1.199-1.2-1.199
				c-0.662,0-1.199,0.537-1.199,1.199c0,0.663,0.537,1.2,1.199,1.2C163.33,342.996,163.867,342.459,163.867,341.796z
				 M167.465,341.796c0-0.662-0.537-1.199-1.199-1.199c-0.663,0-1.199,0.537-1.199,1.199c0,0.663,0.537,1.2,1.199,1.2
				C166.928,342.996,167.465,342.459,167.465,341.796z M171.064,341.796c0-0.662-0.537-1.199-1.199-1.199
				c-0.662,0-1.199,0.537-1.199,1.199c0,0.663,0.537,1.2,1.199,1.2C170.527,342.996,171.064,342.459,171.064,341.796z
				 M174.662,341.796c0-0.662-0.537-1.199-1.2-1.199c-0.662,0-1.199,0.537-1.199,1.199c0,0.663,0.537,1.2,1.199,1.2
				C174.125,342.996,174.662,342.459,174.662,341.796z M156.671,351.392c0-0.662-0.537-1.199-1.199-1.199
				c-0.663,0-1.2,0.537-1.2,1.199c0,0.663,0.537,1.2,1.2,1.2C156.133,352.591,156.671,352.055,156.671,351.392z M160.269,351.392
				c0-0.662-0.537-1.199-1.199-1.199c-0.663,0-1.2,0.537-1.2,1.199c0,0.663,0.537,1.2,1.2,1.2
				C159.732,352.591,160.269,352.055,160.269,351.392z M163.867,351.392c0-0.662-0.537-1.199-1.2-1.199
				c-0.662,0-1.199,0.537-1.199,1.199c0,0.663,0.537,1.2,1.199,1.2C163.33,352.591,163.867,352.055,163.867,351.392z
				 M167.465,351.392c0-0.662-0.537-1.199-1.199-1.199c-0.663,0-1.199,0.537-1.199,1.199c0,0.663,0.537,1.2,1.199,1.2
				C166.928,352.591,167.465,352.055,167.465,351.392z M171.064,351.392c0-0.662-0.537-1.199-1.199-1.199
				c-0.662,0-1.199,0.537-1.199,1.199c0,0.663,0.537,1.2,1.199,1.2C170.527,352.591,171.064,352.055,171.064,351.392z
				 M174.662,351.392c0-0.662-0.537-1.199-1.2-1.199c-0.662,0-1.199,0.537-1.199,1.199c0,0.663,0.537,1.2,1.199,1.2
				C174.125,352.591,174.662,352.055,174.662,351.392z M168.965,365.186c0-0.662-0.537-1.199-1.2-1.199
				c-0.662,0-1.199,0.537-1.199,1.199c0,0.663,0.537,1.2,1.199,1.2C168.428,366.385,168.965,365.848,168.965,365.186z
				 M172.563,365.186c0-0.662-0.537-1.199-1.2-1.199c-0.662,0-1.199,0.537-1.199,1.199c0,0.663,0.537,1.2,1.199,1.2
				C172.026,366.385,172.563,365.848,172.563,365.186z M176.161,365.186c0-0.662-0.537-1.199-1.199-1.199
				c-0.662,0-1.2,0.537-1.2,1.199c0,0.663,0.537,1.2,1.2,1.2C175.625,366.385,176.161,365.848,176.161,365.186z M179.76,365.186
				c0-0.662-0.537-1.199-1.2-1.199c-0.663,0-1.199,0.537-1.199,1.199c0,0.663,0.537,1.2,1.199,1.2
				C179.223,366.385,179.76,365.848,179.76,365.186z M183.358,365.186c0-0.662-0.537-1.199-1.199-1.199
				c-0.663,0-1.2,0.537-1.2,1.199c0,0.663,0.537,1.2,1.2,1.2C182.821,366.385,183.358,365.848,183.358,365.186z M186.956,365.186
				c0-0.662-0.537-1.199-1.199-1.199s-1.199,0.537-1.199,1.199c0,0.663,0.537,1.2,1.199,1.2S186.956,365.848,186.956,365.186z
				 M168.965,375.081c0-0.663-0.537-1.199-1.2-1.199c-0.662,0-1.199,0.537-1.199,1.199c0,0.662,0.537,1.199,1.199,1.199
				C168.428,376.281,168.965,375.744,168.965,375.081z M172.563,375.081c0-0.663-0.537-1.199-1.2-1.199
				c-0.662,0-1.199,0.537-1.199,1.199c0,0.662,0.537,1.199,1.199,1.199C172.026,376.281,172.563,375.744,172.563,375.081z
				 M176.161,375.081c0-0.663-0.537-1.199-1.199-1.199c-0.662,0-1.2,0.537-1.2,1.199c0,0.662,0.537,1.199,1.2,1.199
				C175.625,376.281,176.161,375.744,176.161,375.081z M179.76,375.081c0-0.663-0.537-1.199-1.2-1.199
				c-0.663,0-1.199,0.537-1.199,1.199c0,0.662,0.537,1.199,1.199,1.199C179.223,376.281,179.76,375.744,179.76,375.081z
				 M183.358,375.081c0-0.663-0.537-1.199-1.199-1.199c-0.663,0-1.2,0.537-1.2,1.199c0,0.662,0.537,1.199,1.2,1.199
				C182.821,376.281,183.358,375.744,183.358,375.081z M186.956,375.081c0-0.663-0.537-1.199-1.199-1.199s-1.199,0.537-1.199,1.199
				c0,0.662,0.537,1.199,1.199,1.199S186.956,375.744,186.956,375.081z"/>
		</g>
	</g>
</g>
<g id="Graphics_2">
	<g>
		<rect x="69.394" y="271.602" style="fill:none;stroke:#263238;stroke-miterlimit:10;" width="101.44" height="12.764"/>
		<rect x="69.394" y="271.602" style="fill:#263238;stroke:#263238;stroke-miterlimit:10;" width="50.72" height="12.764"/>
		<g>
			<path style="fill:#263238;" d="M113.1,265.947c-0.52,0-0.938-0.101-1.254-0.301c-0.316-0.199-0.546-0.495-0.69-0.888
				c-0.144-0.392-0.216-0.868-0.216-1.428h0.876c0,0.392,0.038,0.731,0.114,1.02c0.076,0.288,0.212,0.511,0.408,0.666
				c0.196,0.156,0.462,0.234,0.798,0.234c0.368,0,0.648-0.096,0.84-0.288c0.192-0.192,0.324-0.472,0.396-0.84
				c0.072-0.368,0.108-0.82,0.108-1.356c0-0.592-0.042-1.064-0.126-1.416c-0.084-0.352-0.224-0.605-0.42-0.762
				c-0.196-0.156-0.458-0.234-0.786-0.234c-0.248,0-0.48,0.068-0.696,0.204c-0.216,0.137-0.404,0.336-0.564,0.601h-0.732v-5.04h3.78
				l-0.012,0.828h-2.988l-0.048,3.372c0.144-0.177,0.338-0.328,0.582-0.456c0.244-0.128,0.546-0.192,0.906-0.192
				c0.48,0,0.866,0.12,1.158,0.36c0.292,0.239,0.502,0.582,0.63,1.025c0.128,0.444,0.192,0.979,0.192,1.603
				c0,0.527-0.04,0.996-0.12,1.403c-0.08,0.408-0.21,0.752-0.39,1.032c-0.18,0.28-0.412,0.492-0.696,0.636
				C113.865,265.875,113.516,265.947,113.1,265.947z"/>
			<path style="fill:#263238;" d="M119.027,265.959c-0.576,0-1.032-0.124-1.368-0.372c-0.336-0.248-0.576-0.588-0.72-1.021
				c-0.144-0.432-0.216-0.924-0.216-1.476v-4.224c0-0.561,0.074-1.055,0.222-1.482c0.148-0.428,0.392-0.762,0.732-1.002
				c0.34-0.24,0.79-0.36,1.35-0.36c0.576,0,1.032,0.12,1.368,0.36c0.336,0.24,0.578,0.574,0.726,1.002
				c0.148,0.428,0.222,0.922,0.222,1.482v4.224c0,0.561-0.072,1.056-0.216,1.488c-0.144,0.432-0.384,0.77-0.72,1.014
				C120.071,265.837,119.611,265.959,119.027,265.959z M119.027,265.263c0.376,0,0.666-0.094,0.87-0.282
				c0.204-0.188,0.348-0.44,0.432-0.756c0.084-0.315,0.126-0.67,0.126-1.062v-4.356c0-0.392-0.042-0.746-0.126-1.062
				c-0.084-0.316-0.226-0.566-0.426-0.75c-0.2-0.185-0.492-0.276-0.876-0.276c-0.368,0-0.654,0.092-0.858,0.276
				c-0.204,0.184-0.348,0.434-0.432,0.75c-0.084,0.315-0.126,0.67-0.126,1.062v4.356c0,0.392,0.042,0.746,0.126,1.062
				c0.084,0.316,0.229,0.568,0.438,0.756C118.383,265.169,118.667,265.263,119.027,265.263z"/>
			<path style="fill:#263238;" d="M124.091,261.003c-0.536,0-0.916-0.174-1.14-0.522c-0.224-0.348-0.336-0.798-0.336-1.35v-1.356
				c0-0.567,0.11-1.016,0.33-1.344c0.22-0.328,0.602-0.492,1.146-0.492c0.536,0,0.914,0.162,1.134,0.486
				c0.22,0.324,0.33,0.767,0.33,1.326v1.404c0,0.552-0.11,0.998-0.33,1.338C125.005,260.833,124.627,261.003,124.091,261.003z
				 M124.091,260.319c0.176,0,0.312-0.051,0.408-0.15c0.096-0.1,0.164-0.238,0.204-0.414c0.04-0.176,0.06-0.372,0.06-0.588v-1.428
				c0-0.328-0.046-0.597-0.138-0.805c-0.092-0.208-0.27-0.312-0.534-0.312c-0.272,0-0.452,0.105-0.54,0.317
				c-0.088,0.213-0.132,0.483-0.132,0.811v1.416c0,0.224,0.02,0.422,0.06,0.594c0.039,0.172,0.108,0.309,0.204,0.408
				C123.779,260.269,123.915,260.319,124.091,260.319z M124.607,265.839l3.084-9.804h0.768l-3.06,9.804H124.607z M128.963,265.911
				c-0.536,0-0.914-0.172-1.134-0.517c-0.22-0.344-0.33-0.796-0.33-1.355v-1.344c0-0.568,0.11-1.017,0.33-1.345
				c0.22-0.328,0.598-0.492,1.134-0.492c0.536,0,0.916,0.16,1.14,0.48c0.224,0.32,0.337,0.764,0.337,1.332v1.392
				c0,0.56-0.11,1.009-0.33,1.345C129.889,265.743,129.507,265.911,128.963,265.911z M128.963,265.239
				c0.176,0,0.314-0.053,0.414-0.156c0.1-0.105,0.168-0.242,0.204-0.414c0.036-0.172,0.054-0.366,0.054-0.582v-1.428
				c0-0.328-0.044-0.599-0.132-0.811c-0.088-0.212-0.268-0.317-0.54-0.317s-0.452,0.105-0.54,0.317
				c-0.088,0.212-0.132,0.482-0.132,0.811v1.428c0,0.216,0.02,0.41,0.06,0.582c0.04,0.172,0.108,0.31,0.204,0.414
				C128.651,265.186,128.787,265.239,128.963,265.239z"/>
		</g>
	</g>
</g>
<g id="Graphics_1">
	<g>
		<ellipse style="fill:none;stroke:#263238;stroke-miterlimit:10;" cx="155.559" cy="125.864" rx="20.281" ry="52.731"/>
		<ellipse style="fill:none;stroke:#263238;stroke-miterlimit:10;" cx="155.559" cy="125.864" rx="14.228" ry="36.993"/>
		<path style="fill:none;stroke:#263238;stroke-miterlimit:10;" d="M109.644,125.864c0,9.511-2.965,17.221-6.623,17.221
			c-3.658,0-6.623-7.71-6.623-17.221s2.965-17.221,6.623-17.221C106.678,108.643,109.644,116.353,109.644,125.864z"/>
		<g>
			<line style="fill:none;stroke:#263238;stroke-miterlimit:10;" x1="111.441" y1="140.311" x2="131.816" y2="140.311"/>
			<line style="fill:none;stroke:#263238;stroke-miterlimit:10;" x1="111.441" y1="144.906" x2="131.816" y2="144.906"/>
			<line style="fill:none;stroke:#263238;stroke-miterlimit:10;" x1="111.441" y1="149.5" x2="131.816" y2="149.5"/>
			<line style="fill:none;stroke:#263238;stroke-miterlimit:10;" x1="111.441" y1="154.095" x2="131.816" y2="154.095"/>
			<line style="fill:none;stroke:#263238;stroke-miterlimit:10;" x1="111.441" y1="158.689" x2="131.816" y2="158.689"/>
		</g>
		<line style="fill:none;stroke:#263238;stroke-miterlimit:10;" x1="156.389" y1="128.396" x2="109.932" y2="128.396"/>
		<polyline style="fill:none;stroke:#263238;stroke-miterlimit:10;" points="155.559,162.857 155.559,222.641 126.747,222.641 		"/>
		<rect x="102.554" y="212.698" style="fill:none;stroke:#263238;stroke-miterlimit:10;" width="24.193" height="16.571"/>
		<rect x="102.554" y="188.174" style="fill:none;stroke:#263238;stroke-miterlimit:10;" width="24.193" height="16.571"/>
		<line style="fill:none;stroke:#263238;stroke-miterlimit:10;" x1="126.747" y1="196.128" x2="155.248" y2="196.128"/>
	</g>
	<g>
		<g>
			<rect x="322.712" y="188.266" style="fill:none;stroke:#263238;stroke-miterlimit:10;" width="46.886" height="33.49"/>
			<rect x="334.842" y="156.134" style="fill:none;stroke:#263238;stroke-miterlimit:10;" width="22.625" height="16.16"/>
			<line style="fill:none;stroke:#263238;stroke-miterlimit:10;" x1="345.382" y1="187.751" x2="345.382" y2="171.779"/>
			<line style="fill:none;stroke:#263238;stroke-miterlimit:10;" x1="345.382" y1="238.243" x2="345.382" y2="222.271"/>
			
				<ellipse transform="matrix(0.7071 -0.7071 0.7071 0.7071 -72.7685 316.2653)" style="fill:none;stroke:#263238;stroke-miterlimit:10;" cx="345.382" cy="245.972" rx="8.244" ry="8.244"/>
			<polyline style="fill:none;stroke:#263238;stroke-miterlimit:10;" points="377.785,178.992 360.839,178.992 360.839,187.751 			
				"/>
			<polyline style="fill:none;stroke:#263238;stroke-miterlimit:10;" points="397.41,230.773 410.816,230.773 410.816,178.992 
				397.41,178.992 			"/>
			<polyline style="fill:none;stroke:#263238;stroke-miterlimit:10;" points="360.839,221.756 360.839,230.773 377.785,230.773 			
				"/>
			<rect x="377.609" y="172.905" style="fill:none;stroke:#263238;stroke-miterlimit:10;" width="20.094" height="12.366"/>
			<rect x="377.609" y="198.094" style="fill:none;stroke:#263238;stroke-miterlimit:10;" width="20.094" height="12.366"/>
			<rect x="377.609" y="223.284" style="fill:none;stroke:#263238;stroke-miterlimit:10;" width="20.094" height="12.365"/>
			<line style="fill:none;stroke:#263238;stroke-miterlimit:10;" x1="388.037" y1="185.792" x2="388.037" y2="198.094"/>
			<line style="fill:none;stroke:#263238;stroke-miterlimit:10;" x1="388.037" y1="210.689" x2="388.037" y2="222.991"/>
		</g>
		<polyline style="fill:none;stroke:#263238;stroke-miterlimit:10;" points="241.925,193.685 241.925,180.501 308.245,180.501 
			308.245,230.042 241.925,230.042 241.925,208.468 		"/>
		<circle style="fill:none;stroke:#263238;stroke-miterlimit:10;" cx="312.241" cy="157.728" r="13.983"/>
		
			<ellipse transform="matrix(0.6876 -0.7261 0.7261 0.6876 -71.3037 236.8264)" style="fill:none;stroke:#263238;stroke-miterlimit:10;" cx="239.568" cy="201.276" rx="7.95" ry="7.95"/>
		<line style="fill:none;stroke:#263238;stroke-miterlimit:10;" x1="303.851" y1="169.714" x2="296.26" y2="181.3"/>
		<g>
			<line style="fill:none;stroke:#263238;stroke-miterlimit:10;" x1="292.664" y1="240.829" x2="313.04" y2="240.829"/>
			<line style="fill:none;stroke:#263238;stroke-miterlimit:10;" x1="292.664" y1="245.424" x2="313.04" y2="245.424"/>
			<line style="fill:none;stroke:#263238;stroke-miterlimit:10;" x1="292.664" y1="250.018" x2="313.04" y2="250.018"/>
			<line style="fill:none;stroke:#263238;stroke-miterlimit:10;" x1="292.664" y1="254.613" x2="313.04" y2="254.613"/>
			<line style="fill:none;stroke:#263238;stroke-miterlimit:10;" x1="292.664" y1="259.207" x2="313.04" y2="259.207"/>
		</g>
		<g>
			<line style="fill:none;stroke:#263238;stroke-miterlimit:10;" x1="335.413" y1="195.283" x2="355.789" y2="195.283"/>
			<line style="fill:none;stroke:#263238;stroke-miterlimit:10;" x1="335.413" y1="199.878" x2="355.789" y2="199.878"/>
			<line style="fill:none;stroke:#263238;stroke-miterlimit:10;" x1="335.413" y1="204.473" x2="355.789" y2="204.473"/>
			<line style="fill:none;stroke:#263238;stroke-miterlimit:10;" x1="335.413" y1="209.067" x2="355.789" y2="209.067"/>
			<line style="fill:none;stroke:#263238;stroke-miterlimit:10;" x1="335.413" y1="213.661" x2="355.789" y2="213.661"/>
		</g>
	</g>
</g>
</svg>
